<svg width="48" height="48" viewBox="0 0 48 48" fill="none" xmlns="http://www.w3.org/2000/svg">
<g clip-path="url(#clip0_205_133)">
<rect width="48" height="48" rx="10" fill="#5662F6"/>
<path d="M48 0H0V48H48V0Z" fill="#5662F6"/>
<path d="M35.0893 14.0226C33.0498 13.0865 30.8626 12.3967 28.5758 12.0017C28.5342 11.994 28.4926 12.0131 28.4712 12.0512C28.1899 12.5517 27.8783 13.2046 27.6601 13.7178C25.2005 13.3494 22.7536 13.3494 20.3444 13.7178C20.1262 13.1932 19.8033 12.5517 19.5208 12.0512C19.4993 12.0144 19.4577 11.9953 19.4161 12.0017C17.1306 12.3954 14.9434 13.0852 12.9026 14.0226C12.8849 14.0302 12.8698 14.0429 12.8597 14.0595C8.71119 20.2596 7.57473 26.3072 8.13224 32.2799C8.13476 32.3092 8.15116 32.3371 8.17386 32.3549C10.9109 34.3657 13.5623 35.5864 16.1644 36.3956C16.206 36.4083 16.2501 36.393 16.2766 36.3587C16.8922 35.5178 17.4408 34.6312 17.9113 33.6988C17.9391 33.6442 17.9126 33.5794 17.8558 33.5578C16.9855 33.2276 16.1568 32.8249 15.3597 32.3676C15.2966 32.3308 15.2915 32.2406 15.3496 32.1974C15.5173 32.0716 15.6851 31.9408 15.8453 31.8087C15.8743 31.7845 15.9146 31.7795 15.9487 31.7947C21.1857 34.1866 26.8554 34.1866 32.0306 31.7947C32.0647 31.7782 32.105 31.7833 32.1353 31.8074C32.2955 31.9395 32.4633 32.0716 32.6323 32.1974C32.6903 32.2406 32.6865 32.3308 32.6234 32.3676C31.8263 32.8338 30.9976 33.2276 30.126 33.5565C30.0693 33.5781 30.044 33.6442 30.0718 33.6988C30.5523 34.6299 31.101 35.5165 31.7052 36.3575C31.7304 36.393 31.7758 36.4083 31.8175 36.3956C34.4322 35.5864 37.0835 34.3657 39.8206 32.3549C39.8446 32.3371 39.8597 32.3104 39.8622 32.2812C40.5295 25.3761 38.7447 19.378 35.131 14.0607C35.1221 14.0429 35.107 14.0302 35.0893 14.0226ZM18.6933 28.6432C17.1167 28.6432 15.8175 27.1951 15.8175 25.4168C15.8175 23.6384 17.0915 22.1903 18.6933 22.1903C20.3078 22.1903 21.5944 23.6511 21.5692 25.4168C21.5692 27.1951 20.2952 28.6432 18.6933 28.6432ZM29.3263 28.6432C27.7497 28.6432 26.4505 27.1951 26.4505 25.4168C26.4505 23.6384 27.7244 22.1903 29.3263 22.1903C30.9408 22.1903 32.2274 23.6511 32.2022 25.4168C32.2022 27.1951 30.9408 28.6432 29.3263 28.6432Z" fill="white"/>
</g>
<rect x="0.5" y="0.5" width="47" height="47" rx="9.5" stroke="black" stroke-opacity="0.1"/>
<defs>
<clipPath id="clip0_205_133">
<rect width="48" height="48" rx="10" fill="white"/>
</clipPath>
</defs>
</svg>
