<?xml version="1.0" standalone="no"?>
<!DOCTYPE svg PUBLIC "-//W3C//DTD SVG 20010904//EN"
 "http://www.w3.org/TR/2001/REC-SVG-20010904/DTD/svg10.dtd">
<svg version="1.0" xmlns="http://www.w3.org/2000/svg"
 width="1380.000000pt" height="1380.000000pt" viewBox="0 0 1380.000000 1380.000000"
 preserveAspectRatio="xMidYMid meet">

<g transform="translate(0.000000,1380.000000) scale(0.100000,-0.100000)"
fill="#000000" stroke="none">
<path d="M1 10638 c1 -1792 5 -3126 10 -3078 53 527 159 1029 324 1525 73 219
138 388 257 660 47 107 210 432 260 520 23 38 59 102 82 140 458 792 1142
1546 1901 2097 943 684 2056 1123 3205 1262 113 14 223 27 245 29 22 2 -1383
4 -3122 5 l-3163 2 1 -3162z"/>
<path d="M7520 13793 c162 -13 540 -69 730 -107 617 -124 1190 -321 1749 -600
561 -280 1034 -600 1506 -1019 252 -224 640 -639 856 -917 342 -439 649 -953
863 -1445 96 -218 103 -236 146 -350 214 -566 358 -1180 419 -1795 5 -48 9
1286 10 3078 l1 3162 -3162 -2 c-1740 -1 -3143 -3 -3118 -5z"/>
<path d="M6780 13373 c-261 -6 -657 -39 -830 -68 -47 -8 -128 -22 -180 -30
-89 -15 -281 -55 -430 -91 -127 -31 -407 -114 -515 -153 -237 -85 -336 -122
-410 -156 -16 -7 -59 -25 -95 -40 -111 -45 -388 -180 -525 -255 -33 -18 -80
-44 -105 -58 -54 -29 -288 -173 -347 -213 -23 -16 -46 -29 -52 -29 -6 0 -11
-4 -11 -9 0 -5 -21 -23 -47 -40 -106 -68 -367 -263 -462 -346 -87 -75 -137
-119 -141 -124 -3 -3 -36 -33 -75 -66 -98 -84 -455 -446 -455 -461 0 -6 -7
-15 -16 -18 -9 -4 -14 -13 -10 -22 3 -8 1 -12 -4 -9 -5 3 -17 -3 -27 -13 -46
-46 -133 -151 -133 -159 0 -4 4 -2 9 6 6 9 11 10 15 2 4 -6 2 -11 -3 -11 -23
0 -27 -2 -48 -22 -13 -12 -23 -27 -23 -35 0 -7 -4 -13 -9 -13 -4 0 -26 -26
-48 -57 -23 -32 -50 -67 -62 -77 -22 -20 -27 -36 -13 -36 5 0 13 10 19 22 8
19 10 15 8 -24 -2 -41 -33 -114 -34 -81 -1 6 4 15 9 18 15 9 12 52 -4 58 -8 3
-24 -10 -40 -31 -112 -153 -138 -194 -142 -228 -7 -54 12 -63 124 -64 l92 0 0
40 0 40 40 0 40 0 0 40 0 40 -40 0 c-29 0 -40 4 -40 15 0 11 11 15 40 15 29 0
40 -4 40 -15 0 -13 29 -15 200 -15 l200 0 0 120 0 120 120 0 120 0 0 40 0 40
280 0 c242 0 280 -2 280 -15 0 -11 11 -15 40 -15 29 0 40 4 40 15 0 11 11 15
40 15 l40 0 0 40 0 40 40 0 40 0 0 40 0 40 160 0 160 0 0 40 0 40 80 0 80 0 0
40 0 40 88 1 c48 1 131 2 185 2 l97 1 0 38 c0 27 4 38 15 38 11 0 15 11 15 40
l0 40 95 0 95 0 0 40 c0 22 5 40 10 40 6 0 10 18 10 39 0 35 -3 40 -27 44 -16
3 16 2 70 0 l97 -6 0 42 c0 37 2 41 25 41 23 0 25 4 25 40 0 36 3 40 25 40 23
0 25 4 25 40 0 29 4 40 15 40 8 0 15 -7 15 -15 0 -11 11 -15 40 -15 l40 0 0
40 c0 40 0 40 39 40 25 0 41 5 45 15 4 12 -4 15 -42 17 l-47 1 43 4 c34 3 42
8 42 24 0 16 7 19 40 19 36 0 40 3 40 24 0 27 56 90 74 83 7 -3 10 10 7 39 -1
24 -7 44 -12 44 -5 0 -9 4 -9 9 0 4 23 6 50 3 46 -4 50 -3 50 17 0 18 6 21 40
21 54 0 56 27 3 33 -21 2 -3 2 40 -1 70 -4 77 -2 77 14 1 27 35 64 59 64 12 0
21 5 21 11 0 6 11 20 25 31 31 24 32 35 3 41 -13 3 5 3 40 1 l62 -5 0 40 c0
34 4 40 26 45 15 4 57 4 95 0 l69 -7 0 42 0 41 43 -1 c23 0 36 -3 30 -6 -16
-6 -18 -103 -3 -103 6 0 10 -9 10 -19 0 -10 6 -21 13 -24 9 -3 11 14 7 74 l-5
79 73 0 72 0 0 40 0 40 80 0 80 0 0 40 c0 22 -4 40 -10 40 -5 0 -10 5 -10 11
0 6 8 8 18 5 9 -3 50 -8 90 -12 l72 -7 0 27 c0 24 3 26 40 26 29 0 40 4 40 15
0 11 11 15 40 15 29 0 40 4 40 15 0 11 11 15 40 15 29 0 40 -4 40 -15 0 -11
11 -15 40 -15 l40 0 0 40 0 40 40 0 c29 0 40 -4 40 -15 0 -11 11 -15 40 -15
29 0 40 4 40 15 0 11 12 15 48 15 26 0 92 3 146 7 72 4 97 3 92 -5 -5 -8 1 -8
23 -1 43 15 97 8 93 -12 -1 -9 5 -19 14 -23 18 -7 102 12 122 27 7 5 15 8 17
5 14 -14 -69 -48 -116 -48 -36 0 -124 -35 -160 -63 -98 -78 -119 -89 -151 -84
-48 8 -157 -22 -208 -57 -25 -16 -67 -52 -93 -79 -26 -27 -50 -48 -52 -45 -7
7 89 121 121 144 33 24 117 54 150 54 12 0 29 3 38 6 13 5 13 8 1 20 -7 8 -19
14 -25 14 -24 0 -117 -35 -154 -58 -73 -45 -154 -147 -142 -178 6 -15 -70
-124 -86 -124 -5 0 -7 4 -3 9 3 5 1 12 -5 16 -5 3 -10 0 -10 -7 -1 -8 -6 -6
-15 6 -13 18 -16 17 -77 -14 -271 -138 -341 -179 -369 -214 -52 -66 -58 -72
-59 -53 0 10 4 16 9 13 11 -7 21 18 20 52 0 25 -1 25 -10 7 -6 -14 -8 -2 -4
38 6 68 31 123 86 189 39 47 50 78 27 77 -14 0 -66 -65 -113 -141 -17 -27 -36
-48 -44 -48 -7 0 -11 -6 -8 -14 3 -8 -7 -34 -23 -59 -33 -52 -49 -152 -30
-187 6 -12 9 -24 6 -27 -2 -3 -17 19 -31 48 -15 29 -34 59 -42 68 -23 22 -11
99 26 174 32 67 37 87 22 87 -15 0 -46 -49 -77 -120 -26 -58 -29 -76 -29 -173
0 -88 -3 -108 -16 -112 -25 -8 -89 -71 -89 -89 0 -10 6 -13 15 -10 21 9 19 -9
-5 -29 -11 -9 -20 -28 -20 -41 0 -13 -3 -33 -7 -43 -4 -10 6 -4 25 15 18 18
32 41 32 50 0 15 79 92 94 92 8 0 -72 -117 -82 -122 -4 -2 -18 -18 -31 -36
-13 -18 -26 -31 -28 -28 -3 3 -15 -12 -25 -34 -11 -22 -23 -40 -27 -40 -12 0
-35 49 -28 57 4 3 7 -1 7 -10 0 -9 7 -17 16 -17 13 0 15 7 11 33 -2 17 4 63
15 101 17 62 16 120 -1 100 -5 -5 -16 -45 -26 -89 -9 -44 -24 -85 -32 -92 -18
-14 -20 -61 -4 -91 11 -21 9 -31 -11 -57 -48 -61 -84 -117 -102 -156 l-22 -47
-30 27 c-56 50 -132 184 -155 276 -10 41 -13 45 -20 27 -21 -57 98 -284 205
-389 31 -30 56 -61 56 -69 0 -7 24 -29 54 -49 30 -20 60 -42 66 -50 7 -8 20
-15 30 -15 12 0 19 -9 22 -27 7 -51 0 -62 -48 -69 -84 -12 -197 25 -268 88
-60 52 -71 44 -12 -10 52 -48 120 -84 194 -103 66 -16 85 -35 48 -48 -14 -6
-34 -19 -46 -31 -15 -15 -33 -20 -73 -20 -84 0 -151 50 -201 149 -10 18 -13
31 -8 27 10 -6 23 132 14 148 -9 17 -21 -27 -21 -82 -1 -29 -5 -51 -10 -48 -5
4 -22 38 -37 76 -15 39 -31 70 -36 70 -18 0 -6 -37 74 -220 21 -50 50 -86 88
-113 16 -11 19 -17 9 -17 -8 0 -31 16 -52 36 -21 20 -40 34 -43 31 -12 -12 86
-94 140 -116 50 -22 72 -41 46 -41 -5 0 -26 -18 -46 -39 -20 -22 -52 -47 -71
-56 -34 -16 -40 -41 -9 -39 29 3 17 -16 -30 -46 -26 -16 -52 -31 -58 -33 -6
-2 -8 -8 -4 -12 11 -12 72 3 94 23 10 9 49 41 85 70 37 29 72 64 79 77 13 24
46 42 57 31 6 -6 -147 -156 -159 -156 -10 0 -91 -100 -85 -106 9 -9 42 17 67
52 39 59 34 29 -9 -51 -26 -47 -37 -75 -29 -75 8 0 37 43 67 94 55 99 111 166
137 166 19 0 13 -23 -29 -104 -25 -48 -32 -75 -35 -143 -6 -108 11 -108 27 -1
17 108 32 142 87 195 42 39 74 57 59 33 -3 -5 -1 -10 6 -10 7 0 8 -4 2 -12 -5
-7 -10 -29 -12 -48 -2 -19 -9 -53 -17 -75 -7 -23 -16 -76 -19 -118 -5 -66 -4
-77 10 -77 9 0 13 -5 10 -11 -9 -13 13 -166 28 -196 6 -13 7 -50 3 -93 -3 -41
-2 -70 3 -70 5 0 11 6 14 13 3 6 5 -10 5 -38 1 -95 10 -190 21 -217 9 -23 7
-32 -14 -57 -25 -29 -34 -81 -15 -81 6 0 10 -4 10 -10 0 -5 -7 -10 -14 -10
-11 0 -16 -14 -18 -47 -5 -86 11 -497 22 -558 6 -33 12 -81 13 -106 3 -52 38
-109 68 -109 17 0 19 -7 18 -62 -2 -87 18 -284 33 -311 16 -31 28 -87 39 -192
6 -49 15 -94 20 -100 5 -5 9 -21 9 -35 0 -14 4 -30 8 -35 5 -6 15 -43 21 -82
7 -40 17 -73 22 -73 5 0 9 -14 9 -30 0 -17 5 -39 10 -50 6 -11 15 -29 20 -40
6 -11 10 -29 10 -40 0 -11 7 -23 15 -26 9 -4 15 -19 15 -35 0 -17 6 -32 15
-35 8 -4 15 -15 15 -27 0 -11 8 -29 18 -39 9 -11 28 -31 43 -46 31 -33 51 -79
44 -101 -2 -9 2 -52 11 -96 8 -44 19 -105 24 -135 15 -97 42 -215 51 -225 5
-5 9 -19 9 -32 0 -13 16 -64 36 -115 20 -51 43 -113 51 -138 8 -25 26 -76 40
-115 14 -38 39 -110 55 -160 43 -127 54 -155 114 -290 62 -140 100 -238 109
-280 10 -44 27 -75 41 -75 7 0 20 -10 28 -22 11 -16 16 -18 16 -7 0 8 -6 21
-12 27 -10 10 -10 15 1 21 8 5 11 16 8 25 -6 14 -3 15 14 5 12 -6 35 -9 53 -6
17 3 53 0 80 -5 40 -8 51 -7 64 6 15 15 14 16 -16 16 -18 0 -32 4 -32 9 0 5
-17 13 -37 18 -41 9 -54 28 -26 37 12 4 19 17 20 40 1 28 -2 33 -16 29 -33 -8
-32 32 0 56 16 12 29 28 29 36 0 18 27 20 32 3 5 -14 38 -3 38 13 0 6 -9 13
-20 16 -11 3 -20 11 -20 19 0 11 8 10 38 -4 20 -9 39 -21 40 -25 2 -4 10 -3
17 3 17 14 50 9 51 -8 3 -25 5 -27 13 -13 8 12 17 13 63 2 29 -7 64 -11 78 -8
16 3 9 5 -20 6 -25 2 -38 5 -30 8 8 4 21 12 28 20 7 7 34 14 60 14 26 1 54 3
62 4 8 1 26 3 40 4 l25 1 -28 19 -28 18 27 22 c19 15 41 21 75 21 42 0 49 3
49 20 0 11 4 20 9 20 5 0 11 9 14 20 3 11 10 20 16 20 18 0 25 -31 10 -40 -11
-7 -10 -10 3 -15 10 -4 26 1 39 14 13 12 33 21 46 21 14 0 23 6 23 16 0 13 -7
15 -36 9 -36 -6 -54 3 -54 30 0 6 5 3 10 -5 8 -12 13 -13 30 -2 11 6 27 12 35
12 8 0 15 4 15 9 0 5 18 12 40 16 22 4 40 10 40 14 0 4 12 14 28 21 25 11 25
13 7 20 -18 6 -17 8 9 25 21 14 29 16 35 6 5 -8 10 -2 14 18 7 33 27 40 46 17
10 -12 17 -12 44 2 33 18 57 37 57 46 0 3 -16 -3 -35 -14 -38 -21 -75 -26 -75
-10 0 15 111 68 156 74 21 3 32 3 22 0 -18 -6 -31 -31 -22 -45 9 -16 40 -10
78 16 32 22 36 22 36 7 0 -23 19 -42 42 -42 22 0 24 -26 2 -34 -27 -10 -44 -7
-44 9 0 8 -3 15 -7 15 -5 0 -7 -34 -5 -75 3 -64 -1 -89 -27 -164 -17 -49 -31
-107 -31 -128 0 -32 -4 -39 -21 -40 -29 -2 -34 -10 -20 -27 10 -11 9 -19 -1
-35 -7 -12 -16 -21 -20 -21 -5 0 -8 -18 -8 -40 0 -29 4 -40 15 -40 8 0 15 -7
15 -15 0 -19 10 -19 84 1 65 18 95 44 97 84 l1 25 7 -25 c3 -14 15 -38 25 -53
19 -27 19 -28 -3 -51 -11 -12 -21 -28 -21 -34 0 -7 -7 -12 -15 -12 -8 0 -15
-5 -15 -11 0 -6 -8 -8 -17 -5 -12 3 -25 -4 -36 -19 -22 -31 -15 -33 13 -3 15
17 20 18 20 6 0 -8 -11 -23 -24 -34 -14 -10 -23 -21 -20 -26 3 -4 -2 -8 -10
-8 -9 0 -16 -9 -16 -21 0 -11 -4 -17 -10 -14 -5 3 -10 1 -10 -4 0 -6 3 -11 7
-11 4 0 66 62 139 137 125 130 136 145 193 258 36 74 66 150 76 195 9 41 21
93 26 115 5 22 12 130 15 240 3 110 10 208 15 217 11 21 12 68 0 68 -12 0 -23
133 -15 191 4 27 10 46 15 43 13 -7 11 20 -2 33 -5 5 -12 34 -15 63 -4 44 -1
56 16 72 11 10 20 22 20 27 0 4 8 16 18 27 71 76 132 157 132 174 0 11 7 23
15 27 19 7 45 54 45 80 0 10 9 26 20 36 11 9 20 26 20 38 0 12 9 40 19 63 28
60 45 122 38 140 -3 8 1 20 8 26 15 12 24 47 29 110 2 19 6 43 11 53 4 9 5 28
3 40 -3 13 1 29 9 35 13 12 18 63 14 128 -3 35 29 74 60 74 22 0 75 60 94 107
17 41 19 69 2 34 -13 -27 -67 -91 -77 -91 -4 0 -18 9 -31 21 -20 18 -24 29
-23 79 1 39 6 64 17 74 19 20 27 20 27 2 0 -24 29 -26 49 -5 29 31 35 68 15
90 -16 18 -16 20 2 34 28 21 44 -6 44 -78 0 -32 4 -56 9 -53 11 7 25 127 22
195 -1 29 3 58 8 65 19 23 42 188 36 251 -5 45 -1 87 14 158 12 53 21 131 21
172 0 64 -5 85 -31 136 -17 34 -50 80 -74 103 -40 39 -43 45 -38 87 2 24 8 55
13 69 10 25 17 74 27 183 2 31 8 57 11 57 4 0 8 39 9 86 1 47 6 91 11 97 5 7
12 35 16 62 4 28 13 66 21 85 8 19 17 75 20 123 7 86 7 88 26 71 22 -20 24
-13 8 31 -14 37 -5 85 15 85 16 0 36 42 36 75 0 13 5 27 10 30 6 3 10 19 10
36 0 23 4 29 21 29 16 0 19 4 13 18 -10 24 -7 76 6 80 5 2 10 10 10 18 0 18
-4 19 91 -21 46 -19 87 -35 92 -35 19 0 -8 22 -71 56 -94 52 -127 84 -87 84
39 0 43 143 8 234 -35 90 -204 292 -278 334 -10 5 -20 23 -21 38 -3 40 -32
116 -33 87 -1 -27 -20 -40 -32 -22 -35 53 -15 89 52 98 51 7 66 31 19 31 -17
0 -56 -12 -85 -26 -49 -23 -57 -24 -75 -11 -20 14 -20 15 12 39 18 14 51 42
72 62 22 20 44 36 48 36 4 0 8 5 8 10 0 6 -34 -12 -76 -40 -41 -28 -91 -54
-110 -57 -42 -7 -60 7 -117 92 -74 109 -105 142 -167 171 -33 16 -60 32 -60
35 0 7 95 39 116 39 8 0 14 5 14 10 0 24 -116 4 -150 -26 -13 -11 -22 -10 -56
5 -23 11 -59 22 -80 25 -64 11 -71 19 -55 63 7 21 22 48 33 59 17 19 18 22 2
28 -12 5 -14 13 -10 34 12 47 30 82 44 82 10 0 10 3 -2 15 -22 23 -31 19 -46
-22 -15 -42 -17 -49 -24 -111 -5 -34 -26 -93 -41 -110 -2 -2 -11 1 -22 6 -52
27 -242 92 -269 92 -13 0 -15 3 -7 11 8 8 17 8 31 0 11 -6 29 -11 40 -11 11 0
39 -9 63 -20 61 -27 96 -26 44 1 -22 12 -45 22 -52 23 -7 1 -16 5 -19 9 -4 4
-20 7 -36 7 -15 0 -28 5 -28 11 0 6 -8 9 -18 7 -10 -3 -27 1 -37 8 -23 17 -49
17 -100 -1 l-40 -14 25 19 c14 11 49 29 78 41 56 23 51 23 192 -9 22 -4 23 -3
12 10 -12 15 -24 19 -110 38 -37 8 -72 6 -153 -12 -23 -5 -14 32 30 120 11 24
21 52 21 63 0 21 -24 26 -36 8 -4 -8 -9 -7 -16 2 -6 10 -7 7 -3 -8 5 -17 -33
-156 -49 -180 -1 0 -27 -4 -58 -8 l-58 -7 0 77 c0 64 -2 75 -13 66 -8 -6 -17
-7 -22 -3 -4 4 -2 -3 4 -16 9 -17 10 -102 2 -118 -1 -1 -27 9 -58 21 -77 31
-183 49 -254 42 l-58 -5 36 66 c19 37 52 84 71 105 32 33 34 37 15 37 -27 0
-69 -50 -112 -133 -49 -94 -64 -109 -114 -112 -24 -2 -68 -17 -100 -34 -43
-23 -57 -27 -57 -16 0 28 61 130 98 163 49 43 97 79 89 65 -4 -6 -2 -13 4 -15
6 -2 -12 -18 -40 -37 -51 -32 -144 -151 -118 -151 19 1 57 36 57 53 0 19 57
63 130 102 56 29 73 46 75 78 1 14 -4 11 -22 -12 -26 -33 -57 -41 -67 -16 -4
11 2 15 27 15 24 0 28 3 17 10 -13 9 -7 14 13 11 4 0 7 3 7 9 0 6 8 10 18 10
9 0 35 12 57 25 30 19 54 25 97 25 36 0 58 4 61 13 3 9 7 9 20 -2 23 -18 21
-31 -3 -31 -17 0 -20 -7 -20 -40 0 -34 -3 -40 -21 -40 -18 0 -19 -2 -9 -15 7
-8 16 -15 21 -15 5 0 9 7 9 15 0 11 11 15 40 15 24 0 40 -5 40 -12 0 -9 3 -9
12 0 7 7 25 12 40 12 18 0 28 5 28 15 0 8 5 15 10 15 6 0 10 -6 10 -12 0 -10
27 -12 109 -10 107 4 109 3 104 -17 -5 -20 -2 -21 121 -21 103 0 126 3 126 14
0 10 -14 16 -42 19 -24 2 -6 4 40 5 l82 2 0 -30 c0 -28 2 -30 40 -30 29 0 40
-4 40 -15 0 -12 16 -15 80 -15 64 0 80 -3 80 -15 0 -11 11 -15 40 -15 22 0 40
-4 40 -10 0 -5 18 -10 40 -10 22 0 40 -4 40 -10 0 -5 18 -10 40 -10 33 0 40
-3 40 -20 0 -17 7 -20 40 -20 22 0 40 -4 40 -10 0 -5 18 -10 40 -10 22 0 40
-4 40 -10 0 -5 18 -10 40 -10 34 0 40 -3 40 -21 0 -20 4 -21 50 -17 47 5 53 3
76 -25 21 -25 27 -28 36 -16 7 10 11 11 14 2 14 -34 47 -63 65 -58 12 4 22 -1
31 -14 8 -13 23 -21 40 -21 26 0 88 -50 88 -71 0 -5 5 -9 11 -9 6 0 20 -11 31
-25 16 -21 28 -25 69 -25 41 0 49 -3 49 -19 0 -10 15 -34 34 -53 30 -30 39
-33 82 -32 27 1 37 0 22 -3 -58 -9 -13 -53 55 -53 42 0 46 2 50 28 3 15 3 -10
0 -55 -5 -81 -4 -83 17 -83 13 0 28 -8 35 -17 10 -13 24 -17 55 -14 25 1 50
-3 66 -13 29 -20 31 -36 4 -36 -11 0 -20 -7 -20 -15 0 -11 11 -15 40 -15 36 0
40 -2 40 -25 0 -22 4 -25 40 -25 l40 0 0 -40 0 -40 40 0 40 0 0 -40 c0 -36 3
-40 25 -40 23 0 25 -4 25 -40 l0 -40 55 0 55 0 0 -40 0 -40 45 0 45 0 0 -40
c0 -33 3 -40 20 -40 17 0 20 -7 20 -40 0 -54 27 -56 33 -2 2 20 2 2 -1 -40
l-4 -78 26 0 c24 0 26 -4 26 -40 l0 -40 55 0 55 0 0 -80 c0 -79 0 -80 25 -80
23 0 25 -4 25 -40 0 -57 27 -55 33 3 l4 42 1 -42 c2 -42 3 -43 37 -43 34 0 35
-1 35 -41 l0 -41 78 4 c42 3 60 3 40 1 -37 -4 -38 -5 -38 -44 l0 -39 80 0 80
0 0 -55 0 -55 40 0 c36 0 40 -2 40 -25 0 -22 4 -25 40 -25 l40 0 0 -40 0 -40
80 0 80 0 0 -80 0 -80 120 0 120 0 0 40 0 39 -80 4 -80 3 82 0 83 -1 3 -42 c3
-42 4 -43 38 -43 27 0 34 -4 34 -20 0 -17 7 -20 40 -20 29 0 40 -4 40 -15 0
-8 5 -15 10 -15 6 0 10 7 10 15 0 10 10 15 30 15 30 0 30 0 30 -59 l0 -60 38
-3 37 -3 3 -72 c2 -40 7 -74 12 -74 6 -1 23 -2 39 -3 16 0 32 -4 35 -7 4 -4
-14 -5 -39 -4 l-45 3 0 -39 c0 -28 4 -39 15 -39 11 0 15 -11 15 -40 l0 -40 65
0 65 0 0 -40 0 -40 40 0 40 0 0 -40 0 -40 40 0 40 0 0 -40 0 -40 40 0 40 0 0
-40 0 -40 40 0 40 0 0 -40 0 -40 40 0 40 0 0 -40 0 -40 80 0 80 0 0 -40 c0
-22 5 -40 10 -40 6 0 10 -18 10 -40 0 -37 2 -40 29 -40 27 0 28 -2 35 -61 11
-107 17 -99 -79 -99 l-85 0 0 -40 0 -40 40 0 40 0 0 -80 c0 -79 0 -80 25 -80
25 0 25 -1 25 -80 0 -64 3 -80 15 -80 13 0 15 -20 15 -120 l0 -120 40 0 40 0
0 -40 0 -40 40 0 40 0 0 -120 0 -120 80 0 80 0 0 -160 0 -160 80 0 80 0 0
-200 c0 -193 1 -200 20 -200 17 0 20 -7 20 -40 0 -33 -3 -40 -20 -40 -17 0
-20 -7 -20 -40 l0 -40 40 0 40 0 0 -40 c0 -22 5 -40 10 -40 6 0 10 -18 10 -40
0 -22 -4 -40 -10 -40 -5 0 -10 -18 -10 -40 l0 -40 -40 0 -40 0 0 40 0 40 40 0
40 0 0 40 0 40 -120 0 -120 0 0 -40 0 -40 -40 0 -40 0 0 -40 0 -40 120 0 120
0 0 -160 0 -160 40 0 40 0 0 40 c0 22 5 40 10 40 6 0 10 -18 10 -40 0 -22 -4
-40 -10 -40 -6 0 -10 -47 -10 -120 l0 -120 40 0 40 0 0 -40 0 -40 -40 0 -40 0
0 -80 0 -80 40 0 40 0 0 -120 0 -120 40 0 40 0 0 -52 c0 -36 3 -48 9 -39 7 11
11 5 16 -23 4 -20 5 -40 1 -43 -3 -4 -6 4 -6 17 0 13 -3 21 -6 17 -10 -10 -13
-178 -3 -171 5 3 9 -6 9 -20 0 -14 -4 -26 -10 -26 -6 0 -9 -23 -9 -52 l2 -53
7 40 c4 22 17 85 29 139 14 68 18 103 11 110 -14 14 -13 69 1 60 6 -3 9 -15 6
-25 -3 -11 -1 -19 4 -19 4 0 8 20 7 43 0 24 5 54 12 67 7 14 10 39 6 64 -4 25
-3 36 3 27 8 -13 17 25 26 118 2 20 10 77 16 126 7 50 13 113 14 140 1 28 5
66 8 85 23 131 23 824 0 990 -3 25 -7 63 -9 85 -7 111 -63 532 -74 565 -5 14
-12 45 -15 70 -4 25 -11 63 -16 85 -6 22 -17 74 -25 115 -7 41 -17 82 -21 90
-3 8 -7 22 -8 30 -4 31 -77 295 -95 344 -11 28 -28 83 -39 121 -10 39 -39 124
-64 190 -24 66 -59 161 -78 210 -18 50 -36 92 -39 95 -4 3 -21 41 -38 85 -17
44 -65 149 -106 233 -42 84 -76 154 -76 156 0 1 -36 67 -80 145 -44 79 -80
147 -80 151 0 5 -6 15 -13 22 -7 7 -23 31 -37 53 -13 22 -43 70 -67 106 -23
37 -43 69 -43 73 0 3 -22 36 -49 73 -27 38 -78 109 -113 160 -97 141 -254 343
-328 423 -8 9 -37 43 -65 75 -179 215 -579 599 -830 797 -33 26 -96 76 -140
111 -44 35 -107 81 -140 103 -33 22 -103 70 -155 106 -128 88 -283 183 -474
289 -87 49 -160 89 -162 89 -2 0 -59 28 -126 61 -259 129 -567 253 -875 354
-152 49 -197 62 -388 110 -263 66 -289 71 -605 126 -262 45 -787 79 -1100 72z
m-540 -598 c0 -11 -11 -15 -40 -15 -29 0 -40 4 -40 15 0 11 11 15 40 15 29 0
40 -4 40 -15z m357 -270 c-23 -22 -33 -18 -12 5 10 11 20 18 23 16 2 -3 -3
-12 -11 -21z m568 -6 c106 -8 153 -18 162 -32 4 -7 -12 -8 -48 -3 -30 4 -99 9
-154 13 -55 3 -102 7 -104 9 -10 9 24 34 38 28 9 -4 57 -11 106 -15z m-543
-36 c-14 -26 -61 -68 -68 -61 -3 4 11 25 32 47 37 42 54 48 36 14z m-94 -23
c-12 -16 -25 -30 -29 -30 -4 0 -10 -9 -14 -19 -3 -11 -12 -22 -21 -25 -21 -8
-4 21 41 67 43 45 54 48 23 7z m-258 -109 c0 -12 -20 -25 -27 -18 -7 7 6 27
18 27 5 0 9 -4 9 -9z m-65 -30 c-3 -6 -11 -8 -17 -5 -6 4 -5 9 3 15 16 10 23
4 14 -10z m-449 -125 c-9 -14 -16 -45 -17 -68 -1 -24 -5 -54 -9 -68 -6 -19 -8
-9 -9 37 -1 63 11 112 32 125 19 12 21 0 3 -26z m200 -28 c-31 -35 -75 -94
-97 -131 -23 -37 -44 -66 -46 -63 -2 2 3 25 11 50 9 26 16 55 16 65 0 10 12
31 28 46 30 31 122 95 136 95 5 0 -17 -28 -48 -62z m-316 -198 c-1 -31 -4 -27
-25 34 -34 94 -33 142 0 61 14 -33 25 -76 25 -95z m107 28 c-3 -8 -6 -5 -6 6
-1 11 2 17 5 13 3 -3 4 -12 1 -19z m-223 -103 c-4 -8 -10 -12 -15 -9 -11 6 -2
24 11 24 5 0 7 -7 4 -15z m115 -154 c1 -7 -11 -1 -27 15 -23 24 -26 33 -18 53
10 23 11 23 27 -15 10 -22 18 -45 18 -53z m-100 -45 c7 -8 8 -17 3 -20 -6 -3
-12 3 -15 14 -6 24 -4 25 12 6z m-49 -34 c0 -5 -13 -21 -30 -37 -35 -33 -39
-26 -9 16 19 28 39 38 39 21z m-129 -192 c14 0 10 -27 -5 -33 -18 -7 -26 1
-26 28 0 27 14 43 18 21 2 -9 8 -16 13 -16z m4 -230 c3 -5 1 -10 -4 -10 -6 0
-11 5 -11 10 0 6 2 10 4 10 3 0 8 -4 11 -10z m3650 -20 c18 -34 18 -40 5 -40
-5 0 -10 6 -10 14 0 7 -7 19 -15 26 -17 14 -20 30 -5 30 5 0 16 -13 25 -30z
m84 -59 c0 -20 -4 -45 -8 -55 -12 -31 -21 -4 -12 36 7 29 4 44 -10 68 -26 43
-24 50 6 16 17 -20 25 -40 24 -65z m-129 42 c0 -19 -6 -16 -24 12 -17 25 -16
25 4 13 11 -7 20 -18 20 -25z m-6900 -47 c0 -23 -6 -36 -17 -41 -15 -5 -16 -4
-5 6 6 7 12 26 12 41 0 15 2 28 5 28 3 0 5 -15 5 -34z m6970 -22 c0 -8 -5 -12
-10 -9 -6 4 -8 11 -5 16 9 14 15 11 15 -7z m-7041 -107 c0 -8 -2 -8 -6 1 -4
10 -8 10 -21 0 -15 -12 -16 -11 -3 4 14 19 32 15 30 -5z m-84 -76 c-3 -6 -11
-11 -17 -11 -6 0 -6 6 2 15 14 17 26 13 15 -4z m7111 -19 c-9 -8 -26 10 -26
26 1 15 2 15 15 -2 8 -11 13 -21 11 -24z m-7186 -50 c0 -15 -2 -15 -10 -2 -9
13 -11 13 -20 0 -5 -8 -10 -10 -10 -4 0 14 22 34 32 28 4 -3 8 -13 8 -22z
m3335 10 c-3 -3 -11 0 -18 7 -9 10 -8 11 6 5 10 -3 15 -9 12 -12z m3783 0 c2
-7 -2 -10 -12 -6 -9 3 -16 11 -16 16 0 13 23 5 28 -10z m34 -34 c2 -21 3 -38
1 -38 -1 0 -10 11 -18 24 -14 20 -14 29 -4 48 13 25 16 21 21 -34z m-3747 12
c3 -5 1 -10 -4 -10 -6 0 -11 5 -11 10 0 6 2 10 4 10 3 0 8 -4 11 -10z m3695
-55 c0 -5 -5 -3 -10 5 -5 8 -10 20 -10 25 0 6 5 3 10 -5 5 -8 10 -19 10 -25z
m-3560 -11 c-8 -8 -23 -20 -34 -26 -18 -9 -17 -7 4 15 27 28 51 37 30 11z
m-3498 -16 c-7 -7 -12 -8 -12 -2 0 14 12 26 19 19 2 -3 -1 -11 -7 -17z m3348
-15 c0 -5 -15 -16 -33 -26 l-32 -17 28 25 c30 26 37 30 37 18z m-3516 -27 c-3
-9 -12 -16 -20 -16 -11 0 -10 4 4 18 20 22 25 21 16 -2z m7243 -18 c-3 -8 -6
-5 -6 6 -1 11 2 17 5 13 3 -3 4 -12 1 -19z m-7307 -84 c-18 -21 -24 -10 -8 15
7 12 14 17 16 11 2 -6 -2 -17 -8 -26z m5310 26 c0 -5 9 -10 20 -10 26 0 26
-17 -1 -25 -36 -12 -14 -30 38 -31 49 -1 102 -26 103 -50 0 -5 5 -15 12 -22 9
-9 17 -6 33 13 21 22 26 23 66 13 24 -6 46 -14 49 -17 3 -4 16 -7 30 -8 14 -1
47 -7 74 -13 35 -9 50 -9 55 -1 7 11 51 9 86 -4 35 -14 56 -37 49 -57 -3 -12
0 -18 10 -18 9 0 16 -4 16 -9 0 -12 39 -26 63 -22 10 1 17 -4 17 -13 0 -9 -7
-16 -17 -16 -15 0 -15 -1 0 -18 10 -10 17 -24 17 -30 0 -6 6 -9 14 -6 19 7 32
-16 15 -27 -11 -6 -10 -9 5 -15 10 -4 27 -2 37 4 24 16 29 15 29 -3 0 -8 9
-19 20 -25 11 -6 20 -17 20 -25 0 -8 6 -15 14 -15 7 0 18 -18 23 -42 9 -37 12
-40 18 -20 4 12 11 22 15 22 11 0 20 -56 14 -89 -4 -16 -1 -32 5 -35 7 -5 11
4 11 24 0 18 4 29 10 25 13 -8 13 -48 -1 -62 -14 -14 30 -82 54 -83 9 0 17 5
17 10 0 17 29 11 39 -9 6 -10 25 -26 44 -34 27 -13 35 -25 46 -67 7 -27 17
-50 22 -50 5 0 9 -4 9 -10 0 -13 -76 -13 -101 0 -12 7 -25 7 -36 2 -9 -6 -29
-6 -44 -2 -33 10 -54 -8 -45 -38 5 -16 1 -18 -32 -18 -22 1 -47 8 -57 16 -17
14 -18 13 -12 -2 4 -12 2 -18 -8 -18 -8 0 -15 -5 -15 -11 0 -8 -12 -10 -34 -6
-23 4 -39 1 -46 -8 -8 -10 -30 -12 -88 -8 -76 6 -77 6 -59 -14 26 -30 22 -46
-9 -39 -15 4 -33 14 -41 21 -20 20 -39 19 -63 -5 -11 -11 -23 -19 -27 -19 -5
1 -13 -7 -18 -19 -10 -19 -12 -19 -28 10 -14 24 -21 28 -39 23 -38 -12 -129
-66 -135 -81 -3 -9 -13 -12 -27 -8 -17 4 -25 -1 -34 -20 -10 -22 -17 -25 -54
-23 -24 2 -49 6 -56 11 -6 4 -12 3 -12 -3 0 -6 -15 0 -34 12 -18 12 -31 27
-29 34 3 7 -12 19 -34 28 -64 28 -89 33 -107 23 -18 -10 -62 5 -78 26 -4 6
-35 5 -77 -2 -83 -14 -194 -16 -187 -3 4 5 -14 7 -39 5 -27 -3 -45 0 -45 6 0
15 -71 12 -119 -5 -37 -13 -44 -12 -85 5 -25 12 -46 28 -49 40 -7 28 -17 25
-73 -15 -27 -19 -76 -52 -108 -73 -33 -20 -76 -51 -95 -68 -20 -18 -45 -33
-56 -36 -27 -5 -21 -47 11 -71 23 -18 33 -47 17 -47 -5 0 -15 -4 -23 -10 -12
-7 -12 -12 4 -29 11 -12 26 -21 34 -21 8 0 30 -13 49 -30 18 -16 42 -30 52
-30 10 0 21 -3 25 -7 13 -13 86 -31 86 -22 0 5 11 9 25 9 21 0 24 -4 20 -22
-6 -22 -4 -23 71 -24 61 -1 80 -5 90 -19 7 -9 17 -14 23 -10 6 3 11 -1 11 -10
0 -13 6 -16 24 -11 13 3 38 -1 56 -11 31 -15 32 -17 15 -30 -11 -7 -44 -13
-74 -13 l-56 -1 60 -28 c55 -27 66 -29 162 -25 57 2 112 8 123 14 28 15 70 13
70 -4 0 -27 34 -28 53 -2 10 15 25 26 33 26 9 0 12 5 8 12 -5 7 -3 8 5 4 7 -5
17 -1 24 8 7 9 26 20 42 24 27 8 30 13 33 53 4 55 4 62 1 126 -1 31 3 58 11
67 14 18 80 22 96 7 5 -6 22 -12 38 -15 16 -3 46 -16 66 -30 26 -17 41 -21 48
-14 21 21 40 0 46 -54 3 -29 8 -68 10 -87 3 -21 13 -41 27 -52 15 -11 24 -29
25 -49 2 -41 9 -46 38 -27 26 17 38 13 29 -9 -3 -9 1 -14 12 -14 12 0 15 5 11
18 -5 15 -5 15 6 1 25 -30 48 -37 91 -26 30 8 42 7 45 -1 2 -7 10 -12 18 -12
9 0 12 -5 9 -10 -4 -6 -3 -10 2 -9 12 3 63 -12 92 -27 14 -8 34 -14 45 -14 16
0 16 2 -5 26 -13 14 -34 29 -46 34 -28 12 -30 30 -3 23 11 -3 20 -9 20 -14 0
-12 47 -12 52 0 2 5 50 11 108 14 70 3 104 8 103 15 -2 7 9 14 25 17 59 12
108 27 137 40 17 7 65 24 108 37 43 12 73 24 67 26 -6 2 -3 10 7 18 25 18 35
17 32 -3 -4 -48 14 -59 32 -20 8 17 20 23 55 25 41 2 60 -10 32 -21 -9 -3 -5
-12 11 -27 19 -19 25 -20 32 -9 5 8 9 20 9 27 0 6 4 12 9 12 8 0 25 -56 22
-72 0 -5 6 -8 14 -8 11 0 15 11 15 42 0 24 7 49 17 60 15 17 15 19 -2 38 -10
11 -13 20 -7 20 15 0 15 44 1 90 -5 19 -10 62 -10 95 0 42 -2 55 -9 45 -9 -13
-10 -13 -10 1 0 8 5 20 11 26 6 6 7 22 3 38 -6 25 -8 26 -19 12 -16 -22 -15
-22 -59 18 -34 31 -38 40 -14 36 12 -2 21 45 16 84 -3 26 0 35 10 35 12 0 14
-11 9 -55 -5 -52 -4 -55 24 -69 27 -13 29 -13 29 4 0 10 -5 22 -11 26 -8 5 -8
9 1 14 10 6 10 21 1 66 -7 33 -13 67 -15 77 -1 9 -8 23 -14 29 -20 20 -14 36
13 36 30 0 31 -5 45 -133 11 -104 27 -210 55 -355 22 -116 31 -387 17 -497 -7
-48 -14 -124 -17 -168 -3 -44 -10 -105 -16 -135 -6 -30 -13 -65 -15 -77 -4
-19 -11 -23 -40 -23 -30 0 -37 5 -49 33 -9 21 -15 27 -18 17 -22 -66 -24 -78
-16 -92 10 -18 -6 -75 -28 -98 -12 -13 -13 -4 -11 62 2 47 -1 78 -7 78 -5 0
-10 -21 -10 -47 0 -27 -3 -50 -6 -53 -3 -3 -9 -22 -13 -42 -6 -32 -4 -38 10
-38 12 0 15 -6 10 -22 -3 -13 -6 -33 -6 -45 0 -14 -6 -23 -16 -23 -11 0 -15
-6 -11 -19 4 -16 2 -17 -19 -6 -13 6 -32 23 -43 36 l-20 24 -1 -26 c0 -15 7
-29 15 -33 8 -3 15 -15 15 -26 0 -11 -7 -20 -15 -20 -8 0 -15 -6 -15 -14 0 -8
-9 -18 -20 -21 -14 -4 -20 -15 -20 -36 0 -26 -3 -30 -22 -27 -22 3 -23 0 -20
-49 l3 -53 -41 0 c-35 0 -40 3 -40 23 0 16 -3 18 -9 8 -15 -24 -31 -2 -31 43
0 57 -45 121 -77 109 -14 -6 -53 32 -53 51 0 16 -59 66 -79 67 -123 4 -116 6
-119 -25 l-4 -28 -34 41 c-30 35 -38 39 -55 30 -32 -16 -76 26 -77 73 0 21 3
40 9 43 5 4 9 14 9 24 0 14 -6 17 -29 13 -16 -2 -39 3 -53 12 -14 9 -57 20
-96 25 l-71 9 -58 -54 c-39 -37 -65 -54 -79 -52 -12 2 -30 -5 -41 -14 -10 -9
-27 -18 -38 -19 -12 -3 -29 -22 -42 -48 -16 -31 -24 -40 -28 -29 -4 9 -20 18
-36 22 -19 4 -33 14 -39 32 -9 22 -13 24 -25 14 -8 -7 -12 -16 -9 -21 6 -11 1
-11 -21 -3 -12 5 -13 9 -4 14 8 6 0 15 -24 31 -20 13 -37 27 -37 31 0 13 45
14 89 1 64 -18 83 1 39 38 -71 58 -242 18 -225 -53 6 -21 15 -28 47 -33 22 -4
43 -11 46 -16 3 -6 14 -7 24 -4 24 8 35 -22 11 -34 -21 -12 -80 -11 -87 1 -9
15 -56 9 -70 -9 -11 -16 -13 -16 -25 9 -13 30 -29 28 -29 -2 0 -11 -18 -38
-40 -61 -40 -43 -62 -48 -39 -10 16 24 4 41 -14 20 -18 -22 -97 -73 -103 -67
-3 3 2 22 10 42 12 30 13 36 1 36 -18 0 -50 -46 -59 -85 -4 -16 -18 -41 -30
-55 -12 -14 -28 -45 -35 -70 -8 -25 -17 -58 -22 -74 -5 -16 -9 -36 -9 -45 0
-14 2 -14 11 -1 8 11 9 -1 6 -47 -3 -35 -1 -65 5 -71 7 -7 7 -20 1 -39 -6 -16
-7 -38 -2 -51 6 -15 5 -22 -4 -23 -10 0 18 -16 33 -18 4 -1 12 15 19 35 12 34
14 35 31 19 17 -16 19 -15 35 9 9 13 22 22 30 20 8 -4 15 5 20 25 8 36 22 48
38 32 19 -19 42 -12 77 24 26 27 37 32 51 25 10 -6 33 -10 52 -10 26 0 36 5
45 25 6 13 23 27 38 31 35 9 191 -13 228 -32 25 -13 31 -13 46 1 20 18 50 20
50 3 0 -7 7 -5 18 5 12 11 49 17 143 21 117 6 127 5 144 -14 18 -20 17 -20 -8
-20 -26 0 -27 -3 -27 -50 0 -47 11 -63 25 -40 10 17 24 2 18 -20 -9 -35 -114
-78 -143 -60 -9 5 -19 5 -26 -1 -7 -5 -68 -12 -136 -15 -214 -8 -269 -14 -275
-31 -4 -9 1 -19 10 -25 10 -5 17 -20 17 -33 0 -20 5 -25 26 -25 24 0 25 -2 20
-37 -7 -43 5 -69 26 -60 11 4 14 -1 10 -20 -4 -19 0 -25 18 -30 19 -5 21 -11
17 -39 -4 -25 -2 -34 9 -34 8 0 14 4 14 9 0 5 14 11 30 15 20 3 34 14 40 30
11 31 26 40 34 21 3 -8 15 -15 26 -15 15 0 22 8 27 30 8 43 18 45 47 8 24 -30
26 -31 26 -10 0 23 14 30 25 11 4 -5 17 -14 29 -19 12 -4 31 -25 41 -46 11
-22 24 -42 29 -45 12 -9 -1 -42 -14 -34 -6 3 -13 -1 -16 -9 -11 -28 -24 -17
-24 19 0 35 -17 48 -25 20 -16 -50 -14 -48 -31 -31 -8 9 -20 13 -25 10 -6 -3
-21 6 -35 21 -27 29 -50 26 -34 -6 13 -22 -8 -27 -29 -6 -10 10 -15 8 -26 -6
-11 -15 -17 -16 -39 -6 -14 7 -27 17 -27 23 -1 6 -4 -2 -8 -19 -4 -21 -13 -31
-28 -33 -12 -2 -25 -12 -28 -23 -4 -10 -11 -19 -17 -19 -6 0 -16 -7 -23 -17
-10 -14 -13 -10 -19 26 -3 24 -4 58 0 77 8 42 -1 44 -22 3 -10 -21 -19 -28
-23 -20 -6 9 -11 8 -21 -4 -18 -22 -30 -18 -30 10 0 14 -4 25 -9 25 -15 0 -49
-49 -56 -80 -7 -31 -19 -38 -31 -19 -8 14 -19 2 -47 -52 -31 -63 -64 -59 -43
6 6 18 5 17 -10 -2 -25 -34 -54 -30 -54 6 0 26 -3 30 -27 28 -23 -2 -28 2 -27
21 0 12 -5 22 -13 22 -7 0 -13 5 -13 10 0 6 -7 10 -15 10 -9 0 -12 6 -9 15 4
9 0 15 -10 15 -9 0 -16 8 -16 18 0 9 -7 30 -15 46 -12 23 -13 32 -3 44 7 8 13
39 13 68 1 52 -9 70 -22 38 -4 -11 -13 -13 -33 -9 -22 5 -28 2 -33 -14 -10
-40 -30 -24 -24 19 3 22 1 40 -4 40 -5 0 -9 -5 -9 -11 0 -15 -122 -129 -139
-129 -8 0 -11 6 -7 16 4 12 2 15 -9 10 -15 -5 -17 -1 -19 44 -1 17 -7 26 -22
28 -19 3 -21 8 -16 47 3 35 1 46 -12 51 -11 4 -16 18 -16 45 0 29 -3 37 -14
33 -17 -6 -33 19 -41 65 -3 18 -11 41 -18 52 -10 16 -9 21 2 28 9 6 12 18 7
35 -8 31 -26 34 -33 6 -7 -28 -26 -25 -20 3 17 73 18 87 7 87 -7 0 -10 6 -7
14 7 18 -33 66 -55 66 -9 0 -20 9 -23 21 -6 16 -9 18 -22 8 -19 -16 -33 3 -33
46 0 35 -14 60 -28 51 -10 -6 -31 38 -30 65 2 27 -23 79 -38 79 -10 0 -12 8
-8 29 7 35 -13 101 -29 98 -7 -1 -13 11 -14 28 -8 107 -14 154 -22 185 -17 60
-29 349 -21 465 8 106 15 155 60 405 11 63 25 149 30 190 18 123 32 173 54
192 12 9 25 17 30 18 29 1 65 70 36 70 -21 0 -9 47 21 83 21 26 29 43 24 55
-7 14 -10 13 -18 -10 -6 -16 -14 -28 -19 -28 -14 0 -9 38 7 54 8 8 15 26 15
40 0 29 13 56 48 99 12 16 22 43 22 60 0 24 3 28 10 17 8 -12 11 -12 28 3 10
9 32 17 48 17 17 0 35 5 42 12 9 9 12 7 12 -10 0 -28 14 -28 41 -1 12 12 39
24 60 26 29 4 44 13 60 38 15 21 29 31 39 28 13 -4 19 4 24 32 6 29 10 34 20
26 10 -9 17 -5 30 14 17 26 68 35 81 15 8 -13 35 13 35 34 0 11 9 16 29 16 53
0 90 11 84 26 -5 15 9 19 21 7 4 -5 24 -9 44 -10 20 -1 46 -4 57 -7 11 -2 32
-5 48 -5 15 -1 35 -10 44 -21 23 -27 33 -25 33 5 0 14 4 25 10 25 5 0 7 7 4
15 -5 11 1 15 21 15 27 0 28 0 10 -20 -10 -11 -15 -23 -12 -27 4 -3 7 -1 7 5
0 6 15 12 32 14 34 3 55 38 24 38 -9 0 -16 5 -16 10 0 6 9 10 20 10 11 0 20
-4 20 -10z m-5290 -40 c0 -5 -4 -10 -10 -10 -5 0 -10 5 -10 10 0 6 5 10 10 10
6 0 10 -4 10 -10z m-90 -65 c-7 -9 -15 -13 -18 -10 -3 2 1 11 8 20 7 9 15 13
18 10 3 -2 -1 -11 -8 -20z m20 -27 c0 -16 -3 -19 -11 -11 -6 6 -8 16 -5 22 11
17 16 13 16 -11z m6120 -174 c0 -8 -4 -12 -10 -9 -5 3 -10 10 -10 16 0 5 5 9
10 9 6 0 10 -7 10 -16z m70 -26 c0 -16 -3 -19 -11 -11 -6 6 -8 16 -5 22 11 17
16 13 16 -11z m-33 -20 c-3 -7 -5 -2 -5 12 0 14 2 19 5 13 2 -7 2 -19 0 -25z
m123 -27 c0 -5 -9 -19 -20 -32 l-19 -24 -1 33 c0 25 4 32 20 32 11 0 20 -4 20
-9z m120 -241 c0 -5 -4 -10 -9 -10 -6 0 -13 5 -16 10 -3 6 1 10 9 10 9 0 16
-4 16 -10z m3920 -190 l0 -40 -40 0 -40 0 0 40 0 40 40 0 40 0 0 -40z m-3703
-62 c41 -46 54 -88 27 -88 -11 0 -14 5 -10 16 5 12 2 15 -10 10 -10 -4 -23 3
-36 20 -16 20 -23 23 -29 12 -5 -8 -9 -9 -9 -2 0 6 7 17 15 24 8 7 12 16 9 21
-11 19 24 8 43 -13z m59 -25 c-10 -10 -19 5 -10 18 6 11 8 11 12 0 2 -7 1 -15
-2 -18z m-2766 -319 c0 -3 -5 -14 -11 -26 -11 -21 -5 -68 10 -68 4 0 14 18 21
40 20 59 29 54 43 -25 2 -11 9 -19 15 -17 18 3 13 -58 -6 -89 -9 -14 -26 -39
-37 -54 -25 -36 -32 -171 -12 -213 19 -37 41 -121 34 -128 -3 -3 -19 1 -35 10
-40 21 -87 135 -79 192 6 41 30 175 43 232 5 26 3 32 -10 32 -19 0 -22 41 -5
89 9 26 29 44 29 25z m2128 -107 c6 -6 14 -25 17 -40 l7 -28 -43 7 c-70 11
-75 17 -39 47 36 30 43 32 58 14z m-1248 -6 c0 -3 -7 -13 -17 -23 -13 -15 -14
-23 -5 -43 9 -20 9 -25 -2 -25 -23 0 -100 36 -114 52 -10 13 -7 18 20 31 28
13 118 19 118 8z m57 -13 c-3 -8 -6 -5 -6 6 -1 11 2 17 5 13 3 -3 4 -12 1 -19z
m1541 13 c11 -6 8 -13 -13 -29 -27 -22 -63 -37 -70 -30 -3 2 5 18 15 36 20 32
43 40 68 23z m-1334 -17 c25 -24 19 -40 -19 -51 -19 -6 -35 -7 -35 -3 0 8 33
70 37 70 1 0 9 -7 17 -16z m1686 -68 c0 -3 -4 -8 -10 -11 -5 -3 -10 -1 -10 4
0 6 5 11 10 11 6 0 10 -2 10 -4z m-575 -26 c3 -5 -1 -10 -10 -10 -9 0 -13 5
-10 10 3 6 8 10 10 10 2 0 7 -4 10 -10z m-1215 -19 c0 -10 -54 -18 -90 -12
-23 3 -24 4 -5 12 28 11 95 11 95 0z m220 -1 c0 -5 -7 -10 -15 -10 -8 0 -15 5
-15 10 0 6 7 10 15 10 8 0 15 -4 15 -10z m2030 -10 c0 -11 -4 -20 -10 -20 -5
0 -10 9 -10 20 0 11 5 20 10 20 6 0 10 -9 10 -20z m9 -165 c0 -13 -5 -8 -14
14 -8 18 -12 38 -8 44 8 13 21 -23 22 -58z m-129 -227 c0 -25 -3 -29 -10 -18
-13 20 -13 50 0 50 6 0 10 -15 10 -32z m-3130 -2 c0 -3 -4 -8 -10 -11 -5 -3
-10 -1 -10 4 0 6 5 11 10 11 6 0 10 -2 10 -4z m7534 -22 c3 -8 2 -12 -4 -9 -6
3 -10 10 -10 16 0 14 7 11 14 -7z m-517 -66 c-2 -13 -4 -3 -4 22 0 25 2 35 4
23 2 -13 2 -33 0 -45z m160 -320 c-2 -13 -4 -3 -4 22 0 25 2 35 4 23 2 -13 2
-33 0 -45z m500 -190 c-3 -8 -6 -5 -6 6 -1 11 2 17 5 13 3 -3 4 -12 1 -19z
m-6074 -52 c3 -8 3 -17 0 -20 -7 -7 -33 13 -33 25 0 15 27 10 33 -5z m6084 -8
c-3 -8 -6 -5 -6 6 -1 11 2 17 5 13 3 -3 4 -12 1 -19z m10 -60 c-3 -8 -6 -5 -6
6 -1 11 2 17 5 13 3 -3 4 -12 1 -19z m-5928 -10 c11 -29 6 -38 -23 -38 -26 0
-104 -53 -157 -105 -18 -18 -31 -20 -152 -17 -154 3 -192 9 -178 25 6 8 4 19
-6 32 -13 16 -15 17 -10 3 5 -15 0 -18 -28 -18 -36 0 -85 18 -85 31 0 4 14 18
31 30 27 19 35 20 51 10 14 -9 24 -9 30 -3 7 7 18 7 33 0 17 -7 30 -6 53 6 17
9 37 16 45 16 8 0 20 7 27 15 7 8 17 12 23 8 9 -6 112 -16 142 -14 21 1 121
24 140 31 35 15 55 11 64 -12z m5641 -58 c0 -33 -3 -40 -20 -40 -17 0 -20 7
-20 40 0 33 3 40 20 40 17 0 20 -7 20 -40z m-7070 -9 c0 -6 -4 -13 -10 -16 -5
-3 -10 1 -10 9 0 9 5 16 10 16 6 0 10 -4 10 -9z m6997 -153 c-2 -24 -4 -5 -4
42 0 47 2 66 4 43 2 -24 2 -62 0 -85z m-4827 66 c0 -2 -7 -4 -15 -4 -8 0 -15
4 -15 10 0 5 7 7 15 4 8 -4 15 -8 15 -10z m14 -29 c-4 -10 3 -18 20 -25 31
-11 34 -30 6 -30 -11 0 -20 5 -20 11 0 5 -4 8 -9 4 -6 -3 -15 4 -22 16 -9 17
-8 23 2 30 21 13 29 11 23 -6z m-314 -96 c0 -7 9 -19 19 -28 26 -22 25 -78 -1
-94 -10 -7 -18 -19 -18 -28 0 -11 -11 -18 -30 -21 -23 -3 -30 -1 -30 11 0 20
-37 45 -45 31 -9 -14 -35 -12 -35 3 0 7 14 18 30 24 25 9 30 17 30 44 l0 33
20 -22 c11 -12 20 -28 20 -36 0 -16 18 -31 26 -23 3 3 -2 22 -11 43 -8 20 -13
45 -9 56 6 19 34 25 34 7z m-257 -79 c-6 -22 -21 -35 -30 -27 -2 3 -2 15 2 26
8 28 35 28 28 1z m551 5 c-4 -8 -8 -15 -10 -15 -2 0 -4 7 -4 15 0 8 4 15 10
15 5 0 7 -7 4 -15z m5273 -217 c-3 -7 -5 -2 -5 12 0 14 2 19 5 13 2 -7 2 -19
0 -25z m-22 2 c3 -5 1 -10 -4 -10 -6 0 -11 5 -11 10 0 6 2 10 4 10 3 0 8 -4
11 -10z m-5779 -34 c7 -8 31 -17 53 -21 47 -8 57 -25 31 -55 -14 -16 -25 -20
-37 -15 -10 5 -22 9 -26 9 -5 1 -15 10 -23 20 -9 13 -27 21 -49 21 -40 2 -61
15 -24 15 13 0 30 9 37 20 15 24 19 24 38 6z m134 -6 c0 -5 -9 -10 -20 -10
-11 0 -20 5 -20 10 0 6 9 10 20 10 11 0 20 -4 20 -10z m-1336 -9 c12 -19 -6
-42 -28 -35 -31 10 -33 14 -12 30 23 16 33 18 40 5z m76 -30 c0 -5 -7 -12 -16
-15 -24 -9 -28 -7 -14 9 14 17 30 20 30 6z m760 1 c0 -13 -12 -22 -22 -16 -10
6 -1 24 13 24 5 0 9 -4 9 -8z m264 -47 c11 -8 16 -18 12 -22 -3 -4 -16 3 -28
15 -25 25 -13 29 16 7z m-1430 -107 c-4 -6 -10 -5 -15 3 -14 22 -10 33 6 19 8
-7 12 -17 9 -22z m1456 -20 c0 -5 -4 -8 -10 -8 -5 0 -10 10 -10 23 0 18 2 19
10 7 5 -8 10 -18 10 -22z m-79 -45 c-9 -16 -10 -15 -11 8 0 14 3 29 8 33 12
12 14 -22 3 -41z m-1303 0 c39 -30 45 -44 25 -64 -10 -10 -13 -8 -13 14 0 20
-5 27 -20 27 -13 0 -20 7 -20 19 0 12 -8 21 -22 24 -16 3 -17 5 -5 6 9 0 34
-11 55 -26z m-43 -33 c13 0 27 -35 17 -45 -11 -10 -51 37 -44 53 4 10 7 12 10
4 2 -7 10 -12 17 -12z m1332 -12 c-3 -8 -6 -5 -6 6 -1 11 2 17 5 13 3 -3 4
-12 1 -19z m-617 -8 c0 -5 -5 -10 -11 -10 -5 0 -7 5 -4 10 3 6 8 10 11 10 2 0
4 -4 4 -10z m-600 -40 c0 -5 -2 -10 -4 -10 -3 0 -8 5 -11 10 -3 6 -1 10 4 10
6 0 11 -4 11 -10z m40 -10 c0 -5 -4 -10 -10 -10 -5 0 -10 5 -10 10 0 6 5 10
10 10 6 0 10 -4 10 -10z m226 -438 c5 -5 43 -19 84 -31 41 -13 89 -29 105 -36
68 -30 161 -65 171 -65 17 0 24 -26 11 -39 -13 -13 -6 -21 20 -26 10 -2 19 -4
21 -4 2 -1 -3 -7 -10 -15 -14 -14 -88 -27 -88 -15 0 3 -22 9 -49 13 -27 3 -54
12 -60 20 -6 7 -23 11 -41 8 -22 -3 -38 2 -53 16 -12 11 -33 22 -47 24 -14 1
-24 8 -22 13 4 14 123 5 139 -10 13 -14 53 -9 53 6 0 5 -13 9 -30 9 -16 0 -30
4 -30 9 0 5 -13 11 -30 14 -68 14 -170 79 -170 108 0 11 13 12 26 1z m1564 0
c0 -14 -60 -54 -73 -48 -7 2 -4 5 6 5 9 1 17 8 17 16 0 7 8 19 18 24 21 13 32
14 32 3z m-90 -60 c0 -10 -41 -35 -47 -28 -9 8 17 36 33 36 8 0 14 -3 14 -8z
m-3 -68 c-3 -3 -12 -4 -19 -1 -8 3 -5 6 6 6 11 1 17 -2 13 -5z m-517 -44 c0
-5 -18 -10 -40 -10 -22 0 -40 -4 -40 -9 0 -5 -10 -12 -22 -14 -13 -2 6 -3 42
-1 47 3 57 1 34 -5 -41 -11 -54 -19 -54 -37 0 -10 -12 -14 -40 -14 -34 0 -40
3 -40 21 0 11 -5 17 -10 14 -6 -4 -8 -10 -5 -15 3 -5 2 -11 -2 -13 -15 -9 -98
-12 -100 -3 -3 18 -30 26 -90 26 -59 0 -78 10 -52 25 6 4 70 9 142 10 73 2
157 10 187 18 68 18 90 20 90 7z m-465 -30 c3 -5 1 -10 -4 -10 -6 0 -11 5 -11
10 0 6 2 10 4 10 3 0 8 -4 11 -10z m6402 -32 c-3 -8 -6 -5 -6 6 -1 11 2 17 5
13 3 -3 4 -12 1 -19z m20 -80 c-3 -8 -6 -5 -6 6 -1 11 2 17 5 13 3 -3 4 -12 1
-19z m20 0 c-3 -8 -6 -5 -6 6 -1 11 2 17 5 13 3 -3 4 -12 1 -19z m-28 -78 c0
-9 -4 -8 -9 5 -5 11 -9 27 -9 35 0 9 4 8 9 -5 5 -11 9 -27 9 -35z m8 -72 c-2
-13 -4 -5 -4 17 -1 22 1 32 4 23 2 -10 2 -28 0 -40z m-20 -10 c-3 -8 -6 -5 -6
6 -1 11 2 17 5 13 3 -3 4 -12 1 -19z m-6257 -48 c0 -5 -9 -10 -21 -10 -11 0
-17 5 -14 10 3 6 13 10 21 10 8 0 14 -4 14 -10z m6267 -32 c-3 -8 -6 -5 -6 6
-1 11 2 17 5 13 3 -3 4 -12 1 -19z m-8 -78 c0 -9 -4 -8 -9 5 -5 11 -9 27 -9
35 0 9 4 8 9 -5 5 -11 9 -27 9 -35z m-79 -20 c0 -22 -4 -40 -10 -40 -5 0 -10
18 -10 40 0 22 5 40 10 40 6 0 10 -18 10 -40z m-6695 -9 c7 -12 -12 -24 -25
-16 -11 7 -4 25 10 25 5 0 11 -4 15 -9z m6713 -337 c-10 -49 -13 -55 -19 -34
-4 14 -7 36 -7 50 0 22 1 22 8 -5 8 -30 8 -30 9 -3 1 29 11 61 17 55 2 -2 -1
-30 -8 -63z"/>
<path d="M7760 10185 c0 -8 6 -15 14 -15 7 0 19 7 26 15 11 13 8 15 -14 15
-16 0 -26 -5 -26 -15z"/>
<path d="M8350 9124 c0 -8 5 -12 10 -9 6 4 8 11 5 16 -9 14 -15 11 -15 -7z"/>
<path d="M8386 9084 c-9 -23 -8 -24 14 -24 24 0 25 6 6 25 -12 12 -15 12 -20
-1z"/>
<path d="M8487 9044 c-17 -17 -7 -44 17 -44 20 0 22 4 18 26 -3 17 -7 22 -12
14 -6 -9 -9 -9 -11 -1 -3 7 -8 9 -12 5z"/>
<path d="M7270 8980 c12 -22 30 -18 30 6 0 8 -9 14 -20 14 -18 0 -19 -3 -10
-20z"/>
<path d="M7317 8963 c6 -42 10 -49 19 -40 9 9 -5 77 -16 77 -5 0 -6 -17 -3
-37z"/>
<path d="M7430 8990 c0 -5 5 -10 10 -10 6 0 10 5 10 10 0 6 -4 10 -10 10 -5 0
-10 -4 -10 -10z"/>
<path d="M7397 8772 c-12 -13 -17 -37 -17 -76 l0 -57 46 5 c65 8 102 -17 143
-98 16 -31 22 -36 27 -23 3 10 2 23 -4 30 -5 6 -13 28 -17 47 -7 32 -61 120
-74 120 -3 0 -23 16 -45 35 -21 19 -39 35 -41 35 -1 0 -9 -8 -18 -18z"/>
<path d="M8466 8683 c-3 -3 -1 -12 4 -18 7 -9 7 -27 -2 -59 -11 -42 -7 -68 9
-52 11 11 16 123 6 129 -6 4 -13 4 -17 0z"/>
<path d="M8501 8538 c-1 -9 -11 -18 -23 -20 l-23 -3 25 -23 c30 -28 44 -15 32
29 -6 19 -11 26 -11 17z"/>
<path d="M5842 8075 c0 -16 2 -22 5 -12 2 9 2 23 0 30 -3 6 -5 -1 -5 -18z"/>
<path d="M7347 7764 c-11 -11 -8 -26 3 -19 6 3 10 -1 10 -9 0 -9 5 -16 10 -16
14 0 13 13 -3 34 -7 9 -16 14 -20 10z"/>
<path d="M6472 7560 c-15 -20 -18 -30 -10 -30 15 0 48 35 48 50 0 19 -16 10
-38 -20z"/>
<path d="M6524 7475 c-15 -14 -24 -28 -20 -32 4 -4 15 2 24 13 9 12 24 24 32
26 10 3 11 7 3 11 -7 4 -24 -4 -39 -18z"/>
<path d="M6585 7450 c-3 -5 -1 -10 4 -10 6 0 11 5 11 10 0 6 -2 10 -4 10 -3 0
-8 -4 -11 -10z"/>
<path d="M6930 7330 c0 -5 5 -10 10 -10 6 0 10 5 10 10 0 6 -4 10 -10 10 -5 0
-10 -4 -10 -10z"/>
<path d="M6720 6496 c0 -13 29 -31 37 -23 2 2 1 12 -3 21 -8 20 -34 21 -34 2z"/>
<path d="M7100 6410 c0 -5 5 -10 10 -10 6 0 10 5 10 10 0 6 -4 10 -10 10 -5 0
-10 -4 -10 -10z"/>
<path d="M6888 12833 c7 -3 16 -2 19 1 4 3 -2 6 -13 5 -11 0 -14 -3 -6 -6z"/>
<path d="M6968 12823 c7 -3 16 -2 19 1 4 3 -2 6 -13 5 -11 0 -14 -3 -6 -6z"/>
<path d="M6705 12750 c4 -6 11 -8 16 -5 14 9 11 15 -7 15 -8 0 -12 -5 -9 -10z"/>
<path d="M6480 12651 c0 -10 19 -25 25 -20 1 2 -3 10 -11 17 -8 7 -14 8 -14 3z"/>
<path d="M6988 12580 c-14 -16 -28 -26 -32 -23 -3 4 -6 -3 -6 -15 0 -12 4 -22
9 -22 13 0 61 59 61 76 0 19 -2 18 -32 -16z"/>
<path d="M6419 12563 c-13 -16 -12 -17 4 -4 16 13 21 21 13 21 -2 0 -10 -8
-17 -17z"/>
<path d="M6903 12543 c-14 -5 -18 -33 -5 -33 4 0 13 9 20 20 12 20 8 23 -15
13z"/>
<path d="M5884 12505 c3 -8 1 -15 -3 -15 -5 0 -16 -3 -25 -6 -11 -4 -16 -1
-16 10 0 20 -19 20 -44 1 -10 -8 -23 -12 -28 -9 -5 4 -4 -3 4 -15 14 -22 28
-28 28 -11 0 14 38 12 43 -2 3 -10 9 -8 24 5 11 9 27 17 36 17 21 0 21 7 3 26
-19 18 -30 18 -22 -1z"/>
<path d="M6200 12513 c0 -5 19 -35 40 -68 38 -57 40 -58 34 -25 -4 19 -11 37
-16 38 -4 2 -8 8 -8 13 0 9 -36 49 -45 49 -3 0 -5 -3 -5 -7z"/>
<path d="M5440 12425 c0 -11 11 -15 40 -15 29 0 40 4 40 15 0 11 -11 15 -40
15 -29 0 -40 -4 -40 -15z"/>
<path d="M5785 12429 c-12 -19 5 -23 22 -6 16 16 16 17 1 17 -9 0 -20 -5 -23
-11z"/>
<path d="M5802 12394 c-7 -8 -12 -19 -10 -23 2 -5 11 2 21 15 19 26 10 33 -11
8z"/>
<path d="M5760 12372 c0 -6 -9 -12 -20 -12 -24 0 -26 -22 -5 -40 8 -7 13 -16
10 -20 -3 -5 -1 -11 4 -14 13 -8 23 26 15 50 -5 15 -4 16 5 4 5 -8 13 -11 16
-8 4 4 0 17 -9 30 -9 12 -16 17 -16 10z"/>
<path d="M5613 12345 c-9 -24 1 -27 15 -5 8 13 8 20 2 20 -6 0 -13 -7 -17 -15z"/>
<path d="M5706 12234 c-4 -9 -4 -19 -1 -22 2 -3 7 3 11 12 4 9 4 19 1 22 -2 3
-7 -3 -11 -12z"/>
<path d="M8847 11639 c7 -7 15 -10 18 -7 3 3 -2 9 -12 12 -14 6 -15 5 -6 -5z"/>
<path d="M9783 11628 c2 -7 10 -13 17 -13 7 0 15 6 18 13 2 7 -5 12 -18 12
-13 0 -20 -5 -17 -12z"/>
<path d="M9138 11323 c6 -2 18 -2 25 0 6 3 1 5 -13 5 -14 0 -19 -2 -12 -5z"/>
<path d="M9188 11313 c7 -3 16 -2 19 1 4 3 -2 6 -13 5 -11 0 -14 -3 -6 -6z"/>
<path d="M1480 10434 c-19 -31 -43 -68 -52 -83 -36 -54 -58 -101 -48 -101 5 0
10 7 10 16 0 8 5 12 10 9 6 -4 9 -3 8 2 -1 4 6 27 17 50 16 34 24 41 40 37 16
-4 17 -3 5 5 -12 8 -12 13 -2 23 9 9 12 9 12 0 0 -20 17 -14 23 8 3 11 12 20
21 20 21 0 21 16 0 24 -10 4 -13 13 -9 26 10 32 2 24 -35 -36z m23 1 c-3 -9
-8 -14 -10 -11 -3 3 -2 9 2 15 9 16 15 13 8 -4z"/>
<path d="M1580 10390 c0 -19 3 -21 12 -12 9 9 9 15 0 24 -9 9 -12 7 -12 -12z"/>
<path d="M1426 10293 c-6 -14 -5 -15 5 -6 7 7 10 15 7 18 -3 3 -9 -2 -12 -12z"/>
<path d="M1396 10244 c-4 -10 -1 -14 6 -12 15 5 23 28 10 28 -5 0 -13 -7 -16
-16z"/>
<path d="M1352 10228 c5 -15 28 -23 28 -10 0 5 -7 13 -16 16 -10 4 -14 1 -12
-6z"/>
<path d="M1321 10176 c-12 -18 -21 -40 -21 -47 0 -8 10 5 22 28 12 23 26 39
31 36 6 -3 7 -1 3 5 -10 17 -12 16 -35 -22z"/>
<path d="M1408 10203 c7 -3 16 -2 19 1 4 3 -2 6 -13 5 -11 0 -14 -3 -6 -6z"/>
<path d="M11520 10160 c0 -22 5 -40 10 -40 6 0 10 18 10 40 0 22 -4 40 -10 40
-5 0 -10 -18 -10 -40z"/>
<path d="M1330 10141 c0 -10 19 -25 25 -20 1 2 -3 10 -11 17 -8 7 -14 8 -14 3z"/>
<path d="M1247 10045 c-31 -64 -36 -89 -6 -32 11 21 23 36 27 33 4 -2 7 9 8
25 1 16 0 29 0 29 -1 0 -14 -25 -29 -55z"/>
<path d="M1180 9920 c-6 -11 -7 -20 -2 -20 6 0 12 9 15 20 3 11 3 20 1 20 -2
0 -8 -9 -14 -20z"/>
<path d="M1150 9869 c-6 -11 -10 -25 -8 -30 2 -5 8 4 15 21 13 34 9 40 -7 9z"/>
<path d="M1156 9813 c-6 -14 -5 -15 5 -6 7 7 10 15 7 18 -3 3 -9 -2 -12 -12z"/>
<path d="M1096 9753 c-6 -14 -5 -15 5 -6 7 7 10 15 7 18 -3 3 -9 -2 -12 -12z"/>
<path d="M12720 7360 l0 -40 40 0 40 0 0 40 0 40 -40 0 -40 0 0 -40z"/>
<path d="M2 3163 l-2 -3163 3163 2 c1739 1 3140 3 3112 5 -162 11 -535 67
-770 115 -142 28 -468 110 -579 144 -265 82 -504 168 -691 249 -60 26 -144 62
-185 80 -177 76 -466 227 -705 369 -848 501 -1662 1275 -2196 2086 -123 186
-163 252 -286 465 -54 92 -231 446 -283 566 -227 514 -395 1061 -494 1614 -23
130 -71 482 -79 585 -2 25 -4 -1378 -5 -3117z"/>
<path d="M13790 6270 c0 -59 -47 -414 -76 -575 -119 -663 -327 -1293 -621
-1880 -293 -586 -632 -1082 -1061 -1556 -802 -885 -1806 -1541 -2942 -1923
-350 -117 -630 -187 -1070 -266 -71 -13 -341 -48 -450 -59 -48 -5 1306 -9
3073 -10 l3157 -1 0 3155 c0 1735 -2 3155 -5 3155 -3 0 -5 -18 -5 -40z"/>
<path d="M7745 6110 c-3 -5 -1 -10 4 -10 6 0 11 5 11 10 0 6 -2 10 -4 10 -3 0
-8 -4 -11 -10z"/>
<path d="M13020 6000 c0 -22 5 -40 10 -40 6 0 10 18 10 40 0 22 -4 40 -10 40
-5 0 -10 -18 -10 -40z"/>
<path d="M5949 5937 c-58 -33 -108 -83 -147 -148 -29 -48 -28 -56 9 -64 21 -5
29 -12 27 -23 -2 -10 -11 -16 -21 -14 -9 2 -17 -2 -17 -8 0 -5 9 -10 20 -10
20 0 38 -25 26 -37 -3 -3 -23 -1 -43 5 -79 23 -87 23 -122 -7 -33 -28 -70 -40
-236 -78 -44 -9 -72 -19 -62 -21 10 -2 31 1 45 7 15 6 46 10 70 8 24 -1 46 1
48 5 9 14 42 -11 48 -36 3 -14 1 -121 -4 -238 -28 -569 -4 -1538 50 -2033 12
-104 25 -226 30 -270 7 -69 59 -385 92 -555 5 -30 14 -75 18 -100 5 -25 15
-74 24 -110 8 -36 20 -85 25 -110 50 -232 87 -375 147 -560 13 -42 24 -83 24
-92 0 -13 19 -23 73 -38 147 -42 235 -73 350 -122 65 -27 121 -47 124 -44 3 3
-22 75 -56 161 -33 85 -61 161 -61 169 0 8 -11 31 -25 51 -26 39 -86 187 -140
347 -40 115 -58 209 -86 428 -23 190 -59 402 -95 569 -103 481 -107 544 -103
1661 4 932 7 867 -46 1095 -13 53 -14 70 -4 74 6 2 25 17 42 32 16 16 38 29
47 29 25 0 78 -29 90 -48 5 -9 10 -14 10 -9 0 11 -38 145 -45 157 -12 19 -70
8 -126 -23z m-49 -247 c0 -5 -2 -10 -4 -10 -3 0 -8 5 -11 10 -3 6 -1 10 4 10
6 0 11 -4 11 -10z m-96 -76 c44 -6 46 -8 46 -40 0 -35 -15 -44 -34 -20 -6 8
-30 17 -54 20 -53 7 -63 12 -55 31 6 16 27 18 97 9z m116 -65 c0 -5 -7 -9 -15
-9 -9 0 -15 9 -15 21 0 18 2 19 15 9 8 -7 15 -16 15 -21z m-185 -19 c4 -6 12
-6 23 1 11 7 29 8 52 2 33 -9 35 -13 40 -56 3 -26 3 -52 -1 -58 -5 -8 -31 -9
-83 -4 l-76 7 0 52 c0 29 3 56 7 59 10 10 31 8 38 -3z m193 -62 c3 -15 -1 -16
-19 -9 -32 11 -38 34 -8 29 13 -1 25 -11 27 -20z m-110 -80 c23 -11 27 -20 27
-53 0 -35 -3 -41 -30 -49 -16 -6 -32 -11 -34 -13 -9 -7 34 -43 51 -43 12 0 18
-7 18 -22 0 -17 -11 -27 -43 -41 -33 -14 -39 -20 -27 -27 8 -5 25 -10 36 -10
25 0 32 -20 26 -73 -5 -43 -19 -50 -103 -45 l-54 3 0 150 c0 83 2 172 4 199
l4 48 49 -5 c26 -4 61 -12 76 -19z m107 -7 c0 -30 -14 -36 -40 -18 -25 19 -13
50 17 45 17 -2 23 -10 23 -27z m10 -96 c0 -16 -6 -20 -29 -18 -35 3 -40 7 -32
28 9 25 61 16 61 -10z m-5 -75 c0 -5 -13 -10 -30 -10 -16 0 -30 5 -30 10 0 6
14 10 30 10 17 0 30 -4 30 -10z m-1 -76 c7 -6 -2 -12 -32 -19 -23 -6 -27 -4
-27 15 0 19 4 21 27 15 16 -4 30 -9 32 -11z m-15 -101 c-10 -7 -21 -13 -25
-13 -13 0 -21 20 -15 35 4 12 10 13 32 3 24 -11 25 -13 8 -25z m-208 -1168
c-3 -8 -1 -15 4 -15 5 0 12 -11 16 -25 7 -28 24 -34 24 -8 0 13 4 11 20 -7 16
-19 18 -26 7 -38 -10 -13 -7 -14 31 -8 29 4 41 3 37 -4 -3 -5 -24 -10 -46 -10
-21 0 -39 -5 -39 -10 0 -6 15 -8 38 -5 20 3 64 7 97 8 l60 2 6 -60 c4 -33 9
-108 13 -168 8 -140 9 -138 -154 -160 -100 -14 -127 -15 -137 -5 -15 16 -33
126 -21 130 4 2 4 28 -2 58 -5 30 -8 67 -6 83 2 15 -1 27 -5 27 -16 0 -9 30
13 55 12 14 28 25 36 25 12 0 12 3 1 17 -10 11 -10 14 -1 9 19 -12 14 8 -7 26
-19 16 -19 19 -4 57 9 23 18 41 21 41 2 0 2 -7 -2 -15z m-44 -110 c0 -5 -5
-11 -11 -13 -6 -2 -11 4 -11 13 0 9 5 15 11 13 6 -2 11 -8 11 -13z m318 -405
c0 -5 -4 -10 -10 -10 -5 0 -10 5 -10 10 0 6 5 10 10 10 6 0 10 -4 10 -10z
m-12 -102 c19 -19 14 -46 -9 -59 -26 -13 -37 -4 -45 39 -6 29 -4 32 18 32 13
0 29 -5 36 -12z m-73 -45 c12 -67 10 -83 -11 -83 -9 0 -18 9 -21 20 -7 27 -25
25 -21 -2 2 -18 11 -24 38 -28 33 -5 35 -7 34 -40 0 -19 3 -37 8 -40 4 -3 9
-17 10 -30 3 -23 -1 -25 -39 -28 -24 -2 -55 -9 -69 -17 -24 -12 -20 -13 49 -8
l76 6 6 -36 c4 -20 4 -40 1 -46 -4 -6 0 -21 8 -33 8 -13 17 -47 21 -76 l7 -52
-33 -7 c-31 -6 -32 -7 -9 -15 13 -5 30 -6 37 -4 7 3 12 2 11 -2 0 -4 6 -23 15
-42 9 -19 16 -29 17 -22 0 6 7 12 15 12 8 0 15 7 15 15 0 9 -8 14 -22 12 -20
-2 -23 3 -26 35 -3 33 0 38 22 44 40 10 49 -3 43 -62 -4 -42 -2 -52 9 -47 8 3
14 0 14 -7 0 -6 5 -8 10 -5 12 8 3 -43 -11 -61 -5 -6 -3 -19 6 -30 14 -18 14
-17 16 11 l1 30 9 -33 c10 -33 -4 -62 -30 -62 -6 0 -11 -8 -10 -17 0 -11 3
-13 6 -5 7 17 21 15 26 -5 4 -14 5 -12 6 5 2 47 21 19 23 -35 5 -120 1 -136
-34 -165 -28 -23 -35 -25 -44 -13 -7 9 -14 11 -20 5 -5 -5 -42 -12 -81 -16
l-71 -7 -11 39 c-6 22 -11 58 -11 81 0 23 -4 44 -9 47 -7 5 -21 97 -27 181 -1
17 -7 43 -13 60 -10 25 -10 31 5 42 10 7 13 13 6 13 -18 0 -29 29 -37 94 l-8
59 27 -5 c14 -3 26 -2 26 3 0 4 21 11 48 15 26 4 41 9 35 11 -7 3 -13 10 -13
18 0 10 -11 10 -62 -1 -35 -7 -66 -10 -70 -6 -4 4 -10 34 -14 67 -9 85 -10 88
-16 105 -4 8 -12 50 -18 92 -16 99 -12 104 79 107 l70 2 6 -38z m99 -85 c10
-40 7 -48 -23 -48 -23 0 -30 6 -35 25 -8 33 -1 45 28 45 16 0 26 -7 30 -22z
m26 -107 c0 -11 -40 -22 -52 -15 -5 3 -6 10 -3 15 8 12 55 12 55 0z m20 -83
c-1 -35 -60 -68 -60 -34 0 8 -3 21 -6 30 -5 13 1 16 30 16 22 0 36 -5 36 -12z
m25 -118 c0 -21 -5 -26 -32 -28 -31 -3 -33 -1 -33 28 0 29 2 31 33 28 27 -2
32 -7 32 -28z m98 -600 c-4 -4 -19 -4 -32 -1 l-25 7 30 31 29 32 3 -31 c2 -17
0 -34 -5 -38z"/>
<path d="M5715 5130 c4 -6 11 -8 16 -5 14 9 11 15 -7 15 -8 0 -12 -5 -9 -10z"/>
<path d="M5768 5073 c6 -2 18 -2 25 0 6 3 1 5 -13 5 -14 0 -19 -2 -12 -5z"/>
<path d="M5869 3606 c14 -15 26 -26 28 -26 9 0 -24 40 -37 45 -8 4 -4 -5 9
-19z"/>
<path d="M5670 3435 c0 -8 2 -15 4 -15 2 0 6 7 10 15 3 8 1 15 -4 15 -6 0 -10
-7 -10 -15z"/>
<path d="M5791 3133 c-1 -12 4 -25 9 -28 12 -7 12 2 0 30 -8 19 -9 19 -9 -2z"/>
<path d="M6013 2563 c4 -20 10 -40 16 -46 12 -12 54 11 45 25 -5 7 -11 6 -18
-5 -10 -13 -14 -11 -25 14 -7 16 -10 33 -6 39 3 5 1 10 -6 10 -8 0 -10 -12 -6
-37z"/>
<path d="M5971 2549 c-13 -10 -19 -19 -14 -19 13 0 49 27 43 33 -3 3 -16 -3
-29 -14z"/>
<path d="M5991 2527 c-8 -10 -7 -14 4 -14 8 0 15 6 15 14 0 7 -2 13 -4 13 -2
0 -9 -6 -15 -13z"/>
<path d="M6043 2450 c-13 -5 -23 -16 -23 -24 0 -10 -6 -13 -17 -9 -10 4 -14 2
-10 -4 4 -6 18 -13 31 -15 22 -4 24 -3 16 13 -14 26 -13 29 15 29 14 0 25 5
25 10 0 12 -7 12 -37 0z"/>
<path d="M6097 2364 c-15 -8 -32 -12 -37 -9 -6 4 -10 -6 -10 -22 l1 -28 18 23
c11 12 24 22 29 22 5 0 15 7 22 15 15 18 13 18 -23 -1z"/>
<path d="M13167 5793 c-4 -3 -6 -38 -5 -77 1 -45 3 -56 5 -32 3 22 12 46 21
54 9 7 11 10 3 6 -9 -5 -12 -1 -7 12 6 21 -6 48 -17 37z"/>
<path d="M6480 5745 c0 -8 9 -15 20 -15 11 0 20 7 20 15 0 8 -9 15 -20 15 -11
0 -20 -7 -20 -15z"/>
<path d="M6449 5680 c24 -54 31 -59 21 -17 -9 40 -18 57 -30 57 -5 0 -1 -18 9
-40z"/>
<path d="M6490 5710 c0 -5 7 -10 15 -10 8 0 15 5 15 10 0 6 -7 10 -15 10 -8 0
-15 -4 -15 -10z"/>
<path d="M5750 5695 c-8 -9 -8 -15 -2 -15 12 0 26 19 19 26 -2 2 -10 -2 -17
-11z"/>
<path d="M13142 5670 c0 -14 2 -19 5 -12 2 6 2 18 0 25 -3 6 -5 1 -5 -13z"/>
<path d="M8580 5647 c0 -16 19 -125 26 -150 4 -12 9 -15 17 -8 18 14 105 17
119 3 7 -7 22 -12 35 -12 13 0 23 -6 23 -12 0 -9 3 -9 9 1 7 11 14 10 40 -8
34 -25 151 -75 158 -68 2 3 -26 17 -63 31 -37 15 -79 38 -93 52 -86 82 -193
164 -215 164 -8 0 -18 5 -21 10 -9 15 -35 12 -35 -3z"/>
<path d="M2816 5535 c-9 -26 -7 -32 5 -12 6 10 9 21 6 23 -2 3 -7 -2 -11 -11z"/>
<path d="M5253 5531 c-78 -10 -89 -29 -15 -26 74 4 122 14 122 26 0 10 -26 10
-107 0z"/>
<path d="M13131 5390 c-1 -9 4 -21 10 -27 6 -6 14 -25 18 -42 6 -30 7 -29 22
24 13 42 13 53 3 44 -7 -6 -15 -18 -17 -27 -2 -9 -3 -4 -1 12 3 23 2 26 -10
17 -11 -9 -15 -9 -19 1 -4 9 -6 8 -6 -2z"/>
<path d="M9046 5381 c-4 -5 11 -15 31 -21 21 -6 47 -15 58 -20 11 -5 27 -9 35
-8 8 1 36 -1 62 -6 71 -12 82 -1 13 13 -33 7 -78 18 -100 26 -68 21 -94 25
-99 16z"/>
<path d="M13123 5317 c-1 -27 0 -29 8 -12 7 15 8 11 4 -15 -4 -25 -2 -31 5
-20 8 12 10 13 10 1 0 -8 2 -12 5 -10 6 7 -14 77 -24 83 -4 3 -8 -9 -8 -27z"/>
<path d="M7576 5317 c-11 -8 -17 -19 -15 -24 2 -6 12 0 22 13 20 27 19 30 -7
11z"/>
<path d="M7541 5272 c0 -7 -11 -23 -24 -35 -13 -12 -29 -41 -36 -65 -6 -24
-19 -46 -27 -49 -8 -3 -14 -12 -14 -20 0 -8 -9 -31 -19 -51 -11 -20 -30 -57
-42 -82 -12 -25 -39 -79 -60 -120 -21 -41 -37 -76 -35 -78 7 -7 45 57 128 218
48 91 98 187 113 214 14 27 24 56 22 65 -3 9 -5 10 -6 3z"/>
<path d="M13132 5211 c-6 -17 -7 -31 -3 -31 8 0 22 52 16 58 -1 2 -7 -11 -13
-27z"/>
<path d="M8182 5105 c-29 -13 -59 -22 -66 -19 -9 3 -17 -3 -20 -15 -3 -12 -8
-30 -11 -40 -5 -15 0 -20 17 -23 20 -3 23 -9 23 -48 -1 -25 -5 -54 -10 -65 -4
-11 -9 -24 -10 -30 -4 -33 -17 -92 -23 -105 -3 -8 -7 -19 -7 -25 -5 -35 -17
-92 -22 -105 -4 -8 -7 -24 -8 -35 -3 -46 -18 -100 -28 -107 -6 -4 -17 -2 -25
4 -8 7 -21 13 -30 14 -10 2 -29 6 -44 10 -28 6 -34 -1 -20 -22 6 -9 50 -27
100 -40 16 -4 16 -40 -1 -55 -7 -7 -11 -26 -9 -46 3 -21 0 -33 -8 -33 -7 0
-10 -7 -6 -16 3 -8 1 -25 -5 -37 -7 -11 -13 -38 -15 -60 -4 -66 -20 -73 -98
-47 -36 12 -68 25 -71 29 -9 15 8 83 22 88 18 7 33 -14 26 -34 -8 -20 10 -16
30 8 21 24 22 23 -18 36 -33 11 -45 43 -23 64 8 7 12 25 10 41 -5 33 15 37 62
13 15 -8 40 -15 55 -14 20 0 14 5 -29 22 -30 12 -61 26 -68 30 -15 10 -6 57
14 73 8 6 11 14 8 17 -3 3 -2 31 1 62 l8 57 37 -4 37 -3 -28 26 c-53 50 -27
105 45 97 l41 -5 -38 41 c-58 63 -46 77 64 78 l45 0 -1 39 c-1 44 -14 63 -38
53 -23 -9 -21 -24 3 -24 22 0 28 -28 7 -36 -8 -3 -26 0 -41 6 -25 9 -33 5 -87
-37 -33 -27 -84 -66 -112 -87 -76 -57 -120 -105 -113 -121 7 -18 -24 -155
-104 -465 -34 -129 -83 -320 -110 -425 -74 -287 -88 -340 -130 -470 -21 -66
-54 -173 -75 -238 -20 -64 -43 -123 -50 -131 -15 -15 -39 -177 -54 -369 -10
-127 -22 -169 -57 -190 -13 -7 -19 -24 -48 -132 -128 -480 -149 -548 -218
-720 -34 -85 -58 -139 -68 -155 -6 -8 -30 -55 -54 -104 -41 -82 -43 -91 -28
-103 9 -7 22 -13 28 -13 11 0 53 79 69 130 13 42 36 70 58 70 12 0 55 -11 97
-24 41 -14 95 -31 120 -39 36 -11 46 -19 48 -38 4 -42 -10 -53 -51 -40 -30 10
-41 9 -66 -4 -42 -21 -39 -26 12 -19 32 5 46 2 56 -10 15 -18 9 -65 -14 -110
-8 -15 -15 -34 -15 -42 0 -20 21 -28 35 -13 7 8 47 122 89 254 43 132 88 272
101 310 77 231 171 525 220 690 31 105 69 233 85 285 88 287 180 603 275 945
23 82 52 195 75 285 11 47 32 128 45 180 21 81 58 240 110 470 128 565 153
660 174 677 29 22 -19 15 -77 -12z m-292 -320 c0 -8 -4 -15 -9 -15 -13 0 -22
16 -14 24 11 11 23 6 23 -9z m-15 -86 c6 -19 -7 -38 -26 -39 -17 0 -42 29 -36
44 9 24 54 21 62 -5z m-21 -89 c11 -11 -11 -40 -30 -40 -20 0 -44 29 -37 46 6
16 48 12 67 -6z m-28 -96 c-3 -9 -6 -22 -6 -30 0 -20 -12 -18 -38 7 -28 25
-20 39 20 39 23 0 29 -4 24 -16z m-27 -88 c8 -9 8 -16 2 -20 -11 -7 -61 14
-61 26 0 14 47 9 59 -6z m-21 -65 c18 -11 5 -61 -17 -61 -30 0 -44 16 -37 44
6 26 29 33 54 17z m-20 -128 c-4 -33 -37 -43 -57 -19 -20 24 -6 46 29 46 28 0
31 -3 28 -27z m-34 -153 c95 -28 188 -61 204 -73 7 -6 12 -24 10 -41 -2 -25
-7 -30 -23 -28 -71 13 -102 13 -112 0 -10 -11 -4 -13 28 -10 40 4 89 -18 89
-39 0 -28 -33 -121 -45 -125 -7 -3 -47 9 -89 27 -84 35 -115 66 -127 128 l-7
36 -1 -32 c-2 -61 26 -99 97 -133 36 -17 78 -34 94 -37 16 -3 31 -9 33 -13 9
-15 -14 -60 -31 -60 -32 0 -273 81 -285 97 -11 13 -8 36 19 142 18 69 32 133
32 142 0 17 19 39 33 39 6 0 42 -9 81 -20z m-454 -1661 c0 -6 9 -8 20 -4 23 7
117 -20 139 -40 17 -16 2 -86 -42 -195 -5 -14 -12 -38 -14 -54 -2 -17 -8 -33
-13 -36 -6 -4 -8 -13 -5 -21 3 -8 0 -22 -7 -32 -11 -14 -19 -15 -45 -8 -20 6
-33 6 -33 0 0 -5 9 -9 19 -9 28 0 50 -26 44 -51 -5 -19 -11 -20 -47 -15 -53 9
-84 30 -92 63 -11 43 14 77 59 81 20 2 37 5 37 8 0 14 -34 54 -47 54 -10 0
-13 9 -11 31 3 28 8 33 53 48 48 15 49 16 18 19 -37 4 -48 31 -33 83 13 43 13
59 0 59 -5 0 -10 -7 -10 -15 0 -8 -6 -15 -13 -15 -19 0 -50 37 -42 49 8 14 65
14 65 0z m-30 -123 c0 -34 -18 -42 -41 -17 -27 29 -24 41 11 41 25 0 30 -4 30
-24z m-35 -76 c4 -6 4 -17 1 -25 -4 -12 -10 -13 -31 -3 -25 11 -30 19 -18 31
10 11 41 8 48 -3z m-24 -81 c15 -7 18 -16 13 -32 -9 -29 -8 -29 -37 -22 -30 8
-42 32 -26 51 14 17 24 17 50 3z m-15 -111 c3 -5 3 -20 0 -34 -5 -20 -12 -25
-34 -22 -21 2 -28 9 -30 32 -2 16 2 32 8 36 14 9 48 2 56 -12z m87 -82 c37
-11 57 -22 57 -32 0 -24 -22 -104 -29 -109 -4 -2 -33 0 -65 4 -47 6 -56 5 -51
-6 3 -8 5 -18 5 -23 0 -4 20 -13 45 -20 32 -9 45 -18 45 -31 0 -35 -25 -39
-107 -17 -37 9 -43 14 -43 37 0 15 8 38 17 51 10 14 16 33 15 44 -2 10 1 30 6
45 6 14 13 39 17 54 3 17 11 27 18 24 7 -2 38 -12 70 -21z m-113 -44 c0 -5 -6
-16 -12 -25 -20 -26 -58 -11 -58 22 0 15 3 30 6 34 8 7 64 -20 64 -31z m-38
-88 c3 -3 -1 -19 -9 -36 l-15 -30 -21 20 c-24 25 -16 52 16 52 13 0 26 -3 29
-6z m-42 -120 c0 -14 -3 -14 -15 -4 -8 7 -15 14 -15 16 0 2 7 4 15 4 8 0 15
-7 15 -16z m86 -3 c5 -5 25 -11 44 -13 38 -3 51 -27 29 -54 -7 -8 -13 -26 -14
-39 -1 -43 -17 -49 -82 -30 -65 19 -76 30 -61 58 7 14 16 17 34 13 13 -4 24
-2 24 3 0 5 -9 11 -20 14 -19 5 -27 36 -13 50 9 10 48 8 59 -2z m-114 -81 c-4
-34 -16 -44 -40 -31 -14 7 -18 17 -14 36 4 21 9 26 31 23 21 -2 25 -8 23 -28z
m40 -86 l-2 -29 18 24 c22 27 42 21 42 -12 1 -20 2 -20 11 -4 14 23 39 22 39
-3 0 -32 -29 -80 -48 -80 -9 0 -37 6 -62 14 -40 12 -45 17 -48 45 -4 36 22 85
41 78 7 -2 11 -17 9 -33z m-88 0 c23 -9 19 -24 -6 -24 -21 0 -21 -1 -3 -13 24
-18 3 -32 -25 -17 -23 12 -26 30 -8 48 14 14 20 14 42 6z"/>
<path d="M7350 2250 c-12 -8 -10 -10 8 -10 13 0 20 4 17 10 -7 12 -6 12 -25 0z"/>
<path d="M6815 5100 c3 -5 8 -10 11 -10 2 0 4 5 4 10 0 6 -5 10 -11 10 -5 0
-7 -4 -4 -10z"/>
<path d="M13046 5065 c-9 -26 -7 -32 5 -12 6 10 9 21 6 23 -2 3 -7 -2 -11 -11z"/>
<path d="M13070 5065 c0 -8 2 -15 4 -15 2 0 6 7 10 15 3 8 1 15 -4 15 -6 0
-10 -7 -10 -15z"/>
<path d="M13083 5030 c-5 -29 -7 -31 -14 -15 -7 17 -8 18 -8 3 -1 -10 -5 -18
-11 -18 -5 0 -10 -5 -10 -11 0 -8 5 -7 16 2 13 11 14 9 9 -14 -12 -46 3 -29
20 24 9 28 14 53 11 56 -3 4 -9 -9 -13 -27z"/>
<path d="M6860 5013 c0 -5 5 -15 10 -23 8 -12 10 -11 10 8 0 12 -4 22 -10 22
-5 0 -10 -3 -10 -7z"/>
<path d="M6890 4959 c0 -30 30 -109 79 -210 28 -58 51 -112 51 -119 0 -15 6
-37 41 -145 33 -104 34 -105 58 -54 11 24 32 62 46 84 14 22 43 76 64 120 69
141 66 173 -4 40 -49 -92 -85 -125 -128 -116 -26 5 -33 12 -35 35 -2 15 -11
36 -19 46 -9 10 -22 33 -28 52 -28 73 -35 94 -40 121 -3 15 -10 25 -15 22 -6
-3 -10 1 -10 10 0 8 -13 41 -30 72 -16 31 -30 50 -30 42z"/>
<path d="M13051 4924 c0 -11 3 -14 6 -6 3 7 2 16 -1 19 -3 4 -6 -2 -5 -13z"/>
<path d="M8025 4830 c3 -5 14 -10 23 -10 15 0 15 2 2 10 -20 13 -33 13 -25 0z"/>
<path d="M13016 4825 c-3 -9 -6 -22 -5 -28 0 -7 5 -1 10 12 5 13 8 26 5 28 -2
2 -6 -3 -10 -12z"/>
<path d="M12994 4758 c-7 -22 -7 -22 -15 -3 -5 12 -8 14 -8 5 0 -8 4 -24 8
-34 6 -17 9 -15 21 13 7 17 10 34 7 37 -3 3 -9 -5 -13 -18z"/>
<path d="M12971 4684 c0 -11 3 -14 6 -6 3 7 2 16 -1 19 -3 4 -6 -2 -5 -13z"/>
<path d="M12887 4526 c-4 -10 -3 -15 3 -11 6 3 10 1 10 -6 0 -7 3 -10 6 -6 3
3 2 13 -4 22 -8 16 -9 16 -15 1z"/>
<path d="M2492 4470 c0 -14 2 -19 5 -12 2 6 2 18 0 25 -3 6 -5 1 -5 -13z"/>
<path d="M2481 4404 c0 -11 3 -14 6 -6 3 7 2 16 -1 19 -3 4 -6 -2 -5 -13z"/>
<path d="M12856 4393 c-6 -14 -5 -15 5 -6 7 7 10 15 7 18 -3 3 -9 -2 -12 -12z"/>
<path d="M12825 4333 c-10 -21 -20 -41 -22 -45 -2 -5 -2 -8 1 -8 8 0 48 81 43
86 -2 3 -12 -12 -22 -33z"/>
<path d="M2466 4345 c-9 -26 -7 -32 5 -12 6 10 9 21 6 23 -2 3 -7 -2 -11 -11z"/>
<path d="M7938 4323 c7 -3 16 -2 19 1 4 3 -2 6 -13 5 -11 0 -14 -3 -6 -6z"/>
<path d="M7894 4254 c3 -9 6 -22 6 -30 0 -8 5 -14 10 -14 6 0 10 6 10 14 0 8
6 17 13 19 9 4 8 8 -3 16 -23 16 -43 13 -36 -5z"/>
<path d="M2442 4210 c0 -14 2 -19 5 -12 2 6 2 18 0 25 -3 6 -5 1 -5 -13z"/>
<path d="M12760 4189 c0 -5 5 -7 10 -4 6 3 10 8 10 11 0 2 -4 4 -10 4 -5 0
-10 -5 -10 -11z"/>
<path d="M12740 4155 c-7 -9 -10 -18 -7 -21 3 -3 10 4 17 15 13 25 8 27 -10 6z"/>
<path d="M2421 4104 c0 -11 3 -14 6 -6 3 7 2 16 -1 19 -3 4 -6 -2 -5 -13z"/>
<path d="M12725 4109 c-4 -6 -5 -12 -2 -15 2 -3 7 2 10 11 7 17 1 20 -8 4z"/>
<path d="M12690 4059 c0 -5 5 -7 10 -4 6 3 10 8 10 11 0 2 -4 4 -10 4 -5 0
-10 -5 -10 -11z"/>
<path d="M2401 3994 c0 -11 3 -14 6 -6 3 7 2 16 -1 19 -3 4 -6 -2 -5 -13z"/>
<path d="M2391 3944 c0 -11 3 -14 6 -6 3 7 2 16 -1 19 -3 4 -6 -2 -5 -13z"/>
<path d="M2379 3903 c-1 -13 -8 -46 -14 -70 -3 -13 -1 -23 5 -23 5 0 11 10 11
23 1 12 3 34 5 50 1 15 1 27 -2 27 -2 0 -4 -3 -5 -7z"/>
<path d="M12610 3899 c0 -5 5 -7 10 -4 6 3 10 8 10 11 0 2 -4 4 -10 4 -5 0
-10 -5 -10 -11z"/>
<path d="M12590 3840 c-6 -11 -8 -20 -6 -20 3 0 10 9 16 20 6 11 8 20 6 20 -3
0 -10 -9 -16 -20z"/>
<path d="M2345 3723 c-10 -43 -20 -96 -22 -117 -2 -22 -7 -44 -12 -50 -4 -6
-14 -51 -21 -99 -7 -48 -17 -90 -20 -92 -4 -3 -6 -18 -4 -35 2 -16 -1 -30 -6
-30 -6 0 -10 -19 -10 -43 0 -24 -6 -66 -14 -93 -8 -27 -17 -76 -21 -108 -5
-44 -9 -55 -17 -45 -8 11 -8 10 -4 -5 4 -10 2 -24 -2 -30 -5 -6 -12 -27 -16
-46 -4 -25 -3 -31 4 -20 15 23 13 -16 -2 -43 -7 -12 -15 -49 -19 -82 -4 -33
-12 -82 -18 -110 -6 -27 -13 -66 -17 -85 -5 -30 -8 -32 -14 -15 -7 15 -9 16
-9 4 -1 -9 6 -22 14 -29 8 -7 15 -9 15 -4 1 5 5 27 9 49 45 215 156 786 217
1113 20 107 12 117 -11 15z"/>
<path d="M4213 3720 c0 -30 2 -43 4 -27 2 15 2 39 0 55 -2 15 -4 2 -4 -28z"/>
<path d="M2331 3743 c-1 -6 -4 -20 -7 -30 -5 -17 -5 -17 6 0 6 10 9 23 6 30
-3 9 -5 9 -5 0z"/>
<path d="M4115 3740 c3 -5 8 -10 11 -10 2 0 4 5 4 10 0 6 -5 10 -11 10 -5 0
-7 -4 -4 -10z"/>
<path d="M12490 3669 c0 -5 5 -7 10 -4 6 3 10 8 10 11 0 2 -4 4 -10 4 -5 0
-10 -5 -10 -11z"/>
<path d="M10006 3645 c-9 -26 -7 -32 5 -12 6 10 9 21 6 23 -2 3 -7 -2 -11 -11z"/>
<path d="M4291 3420 c0 -8 4 -22 9 -30 12 -18 12 -2 0 25 -6 13 -9 15 -9 5z"/>
<path d="M11661 3264 c0 -11 3 -14 6 -6 3 7 2 16 -1 19 -3 4 -6 -2 -5 -13z"/>
<path d="M9950 3199 c0 -24 4 -38 10 -34 6 3 10 22 10 41 0 19 -4 34 -10 34
-5 0 -10 -18 -10 -41z"/>
<path d="M4342 3210 c0 -14 2 -19 5 -12 2 6 2 18 0 25 -3 6 -5 1 -5 -13z"/>
<path d="M11701 3144 c0 -11 3 -14 6 -6 3 7 2 16 -1 19 -3 4 -6 -2 -5 -13z"/>
<path d="M11710 3091 c0 -6 5 -13 10 -16 6 -3 10 1 10 9 0 9 -4 16 -10 16 -5
0 -10 -4 -10 -9z"/>
<path d="M11750 2983 c34 -128 82 -263 92 -257 5 3 7 12 4 20 -3 9 0 11 11 7
13 -5 13 -2 -2 20 -9 15 -21 25 -25 22 -8 -5 -40 103 -40 135 0 11 -7 23 -15
26 -8 3 -17 26 -21 50 -3 24 -10 44 -14 44 -4 0 0 -30 10 -67z"/>
<path d="M11811 2900 c0 -8 4 -22 9 -30 12 -18 12 -2 0 25 -6 13 -9 15 -9 5z"/>
<path d="M4441 2834 c0 -11 3 -14 6 -6 3 7 2 16 -1 19 -3 4 -6 -2 -5 -13z"/>
<path d="M11825 2830 c3 -5 8 -10 11 -10 2 0 4 5 4 10 0 6 -5 10 -11 10 -5 0
-7 -4 -4 -10z"/>
<path d="M9837 2392 c-16 -17 -16 -23 -1 -78 23 -88 34 -90 34 -3 0 87 -9 108
-33 81z"/>
<path d="M9853 2164 c-17 -18 -16 -59 2 -94 8 -15 16 -49 17 -74 2 -25 6 -46
10 -46 8 0 -1 170 -11 206 -5 18 -8 20 -18 8z"/>
<path d="M9890 1903 c0 -16 -6 -23 -21 -23 -25 0 -59 -17 -59 -30 0 -5 11 -12
25 -16 14 -3 25 -12 25 -20 0 -8 4 -14 8 -14 11 0 34 -84 30 -110 -2 -15 -16
-28 -43 -39 -104 -42 -127 -71 -69 -85 14 -4 23 -10 20 -15 -3 -4 -6 -24 -8
-44 -2 -30 -6 -37 -23 -37 -26 0 -165 -29 -181 -38 -13 -8 -118 -97 -143 -123
-9 -8 -37 -45 -63 -82 -34 -48 -75 -86 -145 -139 -54 -39 -114 -86 -133 -104
-19 -18 -46 -41 -60 -52 -14 -11 -47 -53 -75 -93 -27 -41 -54 -77 -60 -81 -20
-15 21 -7 85 16 268 97 726 293 742 319 12 19 -1 22 -15 3 -13 -18 -47 -13
-47 7 0 6 3 7 7 4 7 -8 33 11 33 24 0 5 -8 9 -18 9 -32 0 -72 24 -78 47 -9 32
0 40 50 41 44 0 46 -1 56 -36 5 -21 10 -43 10 -49 0 -7 9 -13 19 -13 11 0 21
-5 23 -11 3 -10 56 9 146 53 46 24 49 33 32 115 -5 26 -16 147 -25 268 -8 121
-17 245 -19 277 -4 59 -25 116 -26 71z m-235 -653 c3 -5 -1 -10 -10 -10 -9 0
-13 5 -10 10 3 6 8 10 10 10 2 0 7 -4 10 -10z m-15 -184 c0 -3 -4 -8 -10 -11
-5 -3 -10 -1 -10 4 0 6 5 11 10 11 6 0 10 -2 10 -4z m-60 -30 c0 -2 -7 -7 -16
-10 -8 -3 -12 -2 -9 4 6 10 25 14 25 6z"/>
<path d="M4537 1653 c-3 -5 -2 -54 3 -108 9 -93 26 -339 35 -480 2 -33 4 -95
4 -137 1 -68 3 -78 19 -78 9 0 23 9 30 20 7 11 19 20 27 20 17 0 35 30 35 60
0 16 -5 20 -15 16 -9 -3 -19 3 -25 14 -7 14 -7 20 0 20 5 0 10 12 10 26 0 20
-4 25 -16 20 -13 -5 -14 -1 -9 23 7 31 74 111 93 111 15 0 15 13 2 26 -7 7 -2
20 17 40 15 16 26 35 25 42 -2 6 4 12 11 12 21 0 27 46 9 64 -16 15 -10 46 8
46 6 0 9 -4 6 -9 -3 -5 14 -11 39 -13 25 -2 45 1 45 6 0 4 11 6 25 4 13 -3 22
-1 19 3 -6 10 89 12 99 2 4 -3 30 -5 59 -3 29 1 79 2 111 2 31 0 57 1 57 4 0
8 -56 31 -67 27 -7 -3 -13 0 -13 5 0 11 -41 22 -180 51 -298 61 -390 92 -390
130 0 10 -8 21 -17 24 -10 2 -25 8 -34 12 -10 3 -19 3 -22 -2z m133 -723 c0
-5 -5 -10 -11 -10 -5 0 -7 5 -4 10 3 6 8 10 11 10 2 0 4 -4 4 -10z"/>
<path d="M5360 1368 c0 -7 13 -8 35 -5 36 6 81 -10 96 -35 13 -19 11 -163 -2
-195 -7 -15 -18 -42 -25 -60 -8 -17 -13 -39 -12 -50 3 -23 -32 -176 -42 -183
-4 -3 -9 -37 -12 -77 -3 -57 -8 -77 -26 -96 -12 -13 -19 -27 -15 -30 3 -4 0
-7 -8 -8 -8 0 -3 -5 10 -10 13 -5 25 -8 26 -7 3 3 20 72 80 318 14 58 32 130
41 160 9 30 20 73 24 95 5 22 18 67 29 99 33 94 37 91 -89 93 -73 1 -110 -2
-110 -9z"/>
<path d="M5069 1249 c-16 -17 -29 -26 -29 -20 0 6 -17 11 -40 11 -22 0 -40 -4
-40 -10 0 -5 5 -10 11 -10 21 0 -13 -30 -56 -50 -40 -18 -95 -76 -95 -99 0
-17 9 -13 37 15 23 23 27 24 42 10 10 -9 25 -16 34 -16 9 0 19 -5 22 -10 5 -8
11 -8 19 -1 7 6 33 10 57 9 38 -2 49 3 83 35 40 38 64 41 45 5 -20 -37 6 -38
45 -1 23 22 34 39 27 41 -9 3 -7 10 5 23 16 18 16 20 -1 39 -11 12 -31 20 -50
20 -24 0 -34 5 -38 20 -8 30 -45 25 -78 -11z"/>
<path d="M6841 1229 c-29 -47 -27 -85 4 -105 32 -21 42 -12 21 18 -19 26 -21
79 -4 96 6 6 9 14 5 18 -3 3 -15 -9 -26 -27z"/>
<path d="M4880 1239 c0 -5 5 -7 10 -4 6 3 10 8 10 11 0 2 -4 4 -10 4 -5 0 -10
-5 -10 -11z"/>
<path d="M4784 1159 c-3 -6 -1 -16 5 -22 8 -8 11 -5 11 11 0 24 -5 28 -16 11z"/>
<path d="M4872 1020 c0 -14 2 -19 5 -12 2 6 2 18 0 25 -3 6 -5 1 -5 -13z"/>
</g>
</svg>
