<svg width="25" height="25" viewBox="0 0 25 25" fill="none" xmlns="http://www.w3.org/2000/svg">
<g clip-path="url(#clip0_3_574)">
<rect width="25" height="25" rx="5" fill="white"/>
<path d="M13.2031 6.20117C13.042 6.04004 12.7256 5.9082 12.5 5.9082H7.55469C7.3291 5.9082 7.1416 6.09277 7.1416 6.32129V18.6816C7.1416 18.9072 7.32617 19.0947 7.55469 19.0947H17.4424C17.668 19.0947 17.8555 18.9102 17.8555 18.6816V11.2637C17.8555 11.0381 17.7236 10.7217 17.5625 10.5605L13.2031 6.20117ZM17.0322 18.2686H7.96777V6.73145H12.4883C12.5264 6.7373 12.5967 6.7666 12.6289 6.79004L16.9736 11.1348C16.9971 11.167 17.0234 11.2373 17.0322 11.2754V18.2686ZM17.4424 5.9082H14.9697C14.7441 5.9082 14.6885 6.04004 14.8496 6.20117L17.5625 8.91406C17.7236 9.0752 17.8555 9.01953 17.8555 8.79395V6.32129C17.8555 6.0957 17.6709 5.9082 17.4424 5.9082Z" fill="black"/>
</g>
<defs>
<clipPath id="clip0_3_574">
<rect width="25" height="25" rx="5" fill="white"/>
</clipPath>
</defs>
</svg>
