<svg width="144" height="144" viewBox="0 0 144 144" fill="none" xmlns="http://www.w3.org/2000/svg">
<path d="M45.6391 120.861C46.6705 119.829 48.0695 119.25 49.5281 119.25H94.4718C95.9305 119.25 97.3294 119.829 98.3609 120.861L102.25 124.75H41.75L45.6391 120.861Z" fill="url(#paint0_linear_8_11)"/>
<rect x="63.75" y="102.75" width="16.5" height="19.25" fill="url(#paint1_linear_8_11)"/>
<rect x="7.375" y="13.3749" width="129.25" height="90.75" rx="4.125" fill="url(#paint2_linear_8_11)" stroke="url(#paint3_linear_8_11)" stroke-width="2.75"/>
<mask id="path-4-inside-1_8_11" fill="white">
<path d="M6 17.4999C6 14.4623 8.46243 11.9999 11.5 11.9999H132.5C135.538 11.9999 138 14.4623 138 17.4999V99.9999C138 103.037 135.538 105.5 132.5 105.5H11.5C8.46244 105.5 6 103.037 6 99.9999V17.4999Z"/>
</mask>
<path d="M6 17.4999C6 13.7029 9.07804 10.6249 12.875 10.6249H131.125C134.922 10.6249 138 13.7029 138 17.4999C138 15.2217 135.538 13.3749 132.5 13.3749H11.5C8.46243 13.3749 6 15.2217 6 17.4999ZM138 105.5H6H138ZM6 105.5V11.9999V105.5ZM138 11.9999V105.5V11.9999Z" fill="#D2D9DF" mask="url(#path-4-inside-1_8_11)"/>
<path d="M41.75 124.75H102.25V128.875C102.25 129.634 101.634 130.25 100.875 130.25H43.125C42.3656 130.25 41.75 129.634 41.75 128.875V124.75Z" fill="#45494D"/>
<defs>
<linearGradient id="paint0_linear_8_11" x1="72" y1="119.25" x2="72" y2="124.75" gradientUnits="userSpaceOnUse">
<stop stop-color="#C6CFD6"/>
<stop offset="1" stop-color="#BFC8D1"/>
</linearGradient>
<linearGradient id="paint1_linear_8_11" x1="72" y1="102.75" x2="72" y2="122" gradientUnits="userSpaceOnUse">
<stop offset="0.410495" stop-color="#7F878E"/>
<stop offset="1" stop-color="#9EA6AF"/>
</linearGradient>
<linearGradient id="paint2_linear_8_11" x1="15.1667" y1="11.9999" x2="121.493" y2="107.548" gradientUnits="userSpaceOnUse">
<stop stop-color="#3FE3E7"/>
<stop offset="1" stop-color="#076CBD"/>
</linearGradient>
<linearGradient id="paint3_linear_8_11" x1="17" y1="11.9999" x2="119.654" y2="107.485" gradientUnits="userSpaceOnUse">
<stop stop-color="#4E5257"/>
<stop offset="1" stop-color="#46494D"/>
</linearGradient>
</defs>
</svg>
