<svg width="12" height="12" viewBox="0 0 12 12" fill="none" xmlns="http://www.w3.org/2000/svg">
<path d="M0.344727 3.4983C1.89014 2.24852 3.85763 1.5 5.99995 1.5C8.14225 1.5 10.1097 2.24852 11.6552 3.4983L11.0268 4.27626C9.6531 3.16535 7.90425 2.5 5.99995 2.5C4.09566 2.5 2.34678 3.16535 0.973085 4.27626L0.344727 3.4983ZM1.91562 5.4432C3.03175 4.5406 4.45272 4 5.99995 4C7.5472 4 8.96815 4.5406 10.0843 5.4432L9.4559 6.2212C8.5115 5.45745 7.30915 5 5.99995 5C4.69075 5 3.48839 5.45745 2.54398 6.2212L1.91562 5.4432ZM3.48652 7.38815C4.17337 6.83265 5.0478 6.5 5.99995 6.5C6.9521 6.5 7.82655 6.83265 8.5134 7.38815L7.88505 8.1661C7.3699 7.7495 6.71405 7.5 5.99995 7.5C5.28585 7.5 4.63001 7.7495 4.11487 8.1661L3.48652 7.38815ZM5.0574 9.33305C5.315 9.12475 5.6429 9 5.99995 9C6.357 9 6.6849 9.12475 6.9425 9.33305L5.99995 10.5L5.0574 9.33305Z" fill="black"/>
</svg>
